<svg width="235" height="586" viewBox="0 0 235 586" fill="none" xmlns="http://www.w3.org/2000/svg">
<path d="M201.154 195.637C200.798 194.342 202.553 193.573 203.264 194.711L206.008 199.107C206.281 199.544 206.808 199.75 207.304 199.613L212.301 198.239C213.595 197.883 214.364 199.638 213.226 200.349L208.83 203.093C208.393 203.366 208.187 203.893 208.324 204.389L209.698 209.386C210.054 210.68 208.299 211.45 207.588 210.311L204.844 205.915C204.572 205.478 204.044 205.273 203.548 205.409L198.552 206.783C197.257 207.139 196.488 205.384 197.626 204.673L202.022 201.929C202.459 201.657 202.665 201.129 202.528 200.633L201.154 195.637Z" fill="#6E698A"/>
<path d="M41.1899 187.566C41.1899 190.888 38.497 193.581 35.175 193.581C31.8531 193.581 29.1602 190.888 29.1602 187.566C29.1602 184.244 31.8531 181.551 35.175 181.551C38.497 181.551 41.1899 184.244 41.1899 187.566ZM31.9699 187.566C31.9699 189.336 33.4049 190.771 35.175 190.771C36.9452 190.771 38.3801 189.336 38.3801 187.566C38.3801 185.796 36.9452 184.361 35.175 184.361C33.4049 184.361 31.9699 185.796 31.9699 187.566Z" fill="#6E698A"/>
<circle cx="60.5" cy="395.5" r="4.5" fill="#6E698A"/>
<path d="M172.846 43.7888C173.687 41.9675 176.429 42.705 176.242 44.7022L175.179 56.0896C175.14 56.5132 175.253 56.937 175.498 57.2845L182.095 66.6272C183.252 68.2658 181.243 70.2718 179.606 69.1117L170.276 62.4973C169.929 62.2513 169.505 62.1374 169.082 62.1761L157.692 63.2178C155.695 63.4005 154.962 60.6571 156.785 59.8199L167.178 55.0468C167.565 54.8693 167.875 54.5594 168.054 54.1732L172.846 43.7888Z" fill="#6E698A"/>
<path d="M163.435 450.218C163.435 455.308 159.308 459.435 154.218 459.435C149.127 459.435 145 455.308 145 450.218C145 445.127 149.127 441 154.218 441C159.308 441 163.435 445.127 163.435 450.218ZM149.306 450.218C149.306 452.93 151.505 455.129 154.218 455.129C156.93 455.129 159.129 452.93 159.129 450.218C159.129 447.505 156.93 445.306 154.218 445.306C151.505 445.306 149.306 447.505 149.306 450.218Z" fill="#6E698A"/>
<path d="M25.3963 543.337C24.9771 541.324 27.7361 540.316 28.7129 542.127L32.4842 549.115C32.8589 549.809 33.6453 550.175 34.4178 550.014L42.1923 548.396C44.2061 547.977 45.2133 550.736 43.4031 551.713L36.4145 555.484C35.7201 555.859 35.3544 556.645 35.5152 557.418L37.1333 565.192C37.5525 567.206 34.7935 568.213 33.8167 566.403L30.0454 559.415C29.6707 558.72 28.8844 558.354 28.1119 558.515L20.3373 560.133C18.3235 560.552 17.3163 557.794 19.1266 556.817L26.1151 553.045C26.8095 552.671 27.1752 551.884 27.0145 551.112L25.3963 543.337Z" fill="#6E698A"/>
<circle cx="60.5" cy="4.5" r="4.5" fill="#6E698A"/>
<circle cx="230.5" cy="581.5" r="4.5" fill="#6E698A"/>
</svg>
