<svg width="40" height="40" viewBox="0 0 40 40" fill="none" xmlns="http://www.w3.org/2000/svg">
<path d="M20 14.5C18.3424 14.5 16.7527 15.1585 15.5806 16.3306C14.4085 17.5027 13.75 19.0924 13.75 20.75C13.75 22.4076 14.4085 23.9973 15.5806 25.1694C16.7527 26.3415 18.3424 27 20 27C21.6576 27 23.2473 26.3415 24.4194 25.1694C25.5915 23.9973 26.25 22.4076 26.25 20.75C26.25 19.0924 25.5915 17.5027 24.4194 16.3306C23.2473 15.1585 21.6576 14.5 20 14.5Z" fill="white"/>
<path fill-rule="evenodd" clip-rule="evenodd" d="M15.5733 4.6188C18.5223 4.4604 21.4777 4.4604 24.4267 4.6188C26.0383 4.70546 27.4767 5.5938 28.3133 6.93546L29.6817 9.13046C30.0817 9.7688 30.7567 10.2021 31.5317 10.3138C32.175 10.4038 32.815 10.5021 33.4517 10.6088C35.8383 11.0071 37.5 13.0971 37.5 15.4571V29.5005C37.5 30.8265 36.9732 32.0983 36.0355 33.036C35.0979 33.9737 33.8261 34.5005 32.5 34.5005H7.5C6.17392 34.5005 4.90215 33.9737 3.96447 33.036C3.02678 32.0983 2.5 30.8265 2.5 29.5005V15.4571C2.5 13.0971 4.16167 11.0071 6.54833 10.6088C7.185 10.5021 7.825 10.4038 8.46667 10.3121C8.84269 10.2618 9.20314 10.1298 9.52274 9.92537C9.84233 9.72095 10.1133 9.44906 10.3167 9.1288L11.6867 6.93713C12.1008 6.26722 12.6703 5.70693 13.3468 5.30368C14.0233 4.90043 14.7871 4.66441 15.5733 4.6188ZM11.25 20.7505C11.25 18.4298 12.1719 16.2042 13.8128 14.5633C15.4538 12.9223 17.6794 12.0005 20 12.0005C22.3206 12.0005 24.5462 12.9223 26.1872 14.5633C27.8281 16.2042 28.75 18.4298 28.75 20.7505C28.75 23.0711 27.8281 25.2967 26.1872 26.9376C24.5462 28.5786 22.3206 29.5005 20 29.5005C17.6794 29.5005 15.4538 28.5786 13.8128 26.9376C12.1719 25.2967 11.25 23.0711 11.25 20.7505ZM31.25 18.2505C31.5815 18.2505 31.8995 18.1188 32.1339 17.8843C32.3683 17.6499 32.5 17.332 32.5 17.0005C32.5 16.6689 32.3683 16.351 32.1339 16.1166C31.8995 15.8822 31.5815 15.7505 31.25 15.7505C30.9185 15.7505 30.6005 15.8822 30.3661 16.1166C30.1317 16.351 30 16.6689 30 17.0005C30 17.332 30.1317 17.6499 30.3661 17.8843C30.6005 18.1188 30.9185 18.2505 31.25 18.2505Z" fill="white"/>
</svg>
