<svg width="30" height="30" viewBox="0 0 30 30" fill="none" xmlns="http://www.w3.org/2000/svg">
<path d="M18.425 11.2502L17.9925 22.5002M12.0075 22.5002L11.575 11.2502M24.035 7.23766C24.4625 7.30266 24.8875 7.37141 25.3125 7.44516M24.035 7.23766L22.7 24.5914C22.6455 25.2979 22.3263 25.9579 21.8063 26.4392C21.2862 26.9206 20.6036 27.1879 19.895 27.1877H10.105C9.39637 27.1879 8.71378 26.9206 8.19372 26.4392C7.67367 25.9579 7.35449 25.2979 7.3 24.5914L5.965 7.23766M24.035 7.23766C22.5923 7.01956 21.1422 6.85403 19.6875 6.74141M5.965 7.23766C5.5375 7.30141 5.1125 7.37016 4.6875 7.44391M5.965 7.23766C7.40767 7.01956 8.85779 6.85404 10.3125 6.74141M19.6875 6.74141V5.59641C19.6875 4.12141 18.55 2.89141 17.075 2.84516C15.692 2.80096 14.308 2.80096 12.925 2.84516C11.45 2.89141 10.3125 4.12266 10.3125 5.59641V6.74141M19.6875 6.74141C16.5672 6.50026 13.4328 6.50026 10.3125 6.74141" stroke="white" stroke-width="1.875" stroke-linecap="round" stroke-linejoin="round"/>
</svg>
