<svg width="241" height="240" viewBox="0 0 241 240" fill="none" xmlns="http://www.w3.org/2000/svg">
<path fill-rule="evenodd" clip-rule="evenodd" d="M113.307 34.3585C107.567 37.0801 105.912 39.6946 100.662 54.3408C98.967 59.0685 94.4858 62.2225 89.4635 62.2225H78.7188C76.1401 62.2225 73.5968 62.8226 71.2902 63.9754C67.57 65.8343 65.6027 67.7775 63.5569 71.6141C62.5297 73.5406 62.2987 74.9192 62.2987 79.1324C62.2987 84.9184 63.2875 87.5495 66.7635 91.0111C67.801 92.0446 76.2468 97.2351 85.5323 102.546C102.901 112.48 104.534 113.575 105.909 116.219C107.197 118.694 106.945 123.618 105.415 125.889C103.441 128.818 96.5334 134.37 94.3546 134.779C91.6903 135.279 88.7245 134.14 86.7091 131.845C84.0516 128.819 83.9869 127.003 86.3021 120.404C88.5915 113.877 88.7486 114.365 83.4572 111.559C80.3223 109.896 80.6009 109.608 77.7858 117.437C76.2278 121.771 75.7624 123.951 75.767 126.896C75.7767 133.66 79.5611 139.407 85.9232 142.32C88.5583 143.526 89.676 143.706 93.4249 143.526C99.2545 143.246 101.794 141.942 108.007 136.034C114.366 129.988 115.588 127.513 115.588 120.69C115.588 111.976 112.403 107.577 101.638 101.425C97.967 99.3273 94.8957 97.5555 94.8132 97.4879C94.6825 97.3812 102.374 75.9017 110.894 52.5782C112.313 48.6923 114.066 44.8833 114.789 44.1135C117.707 41.0072 123.238 41.0095 126.159 44.1181C127.002 45.0152 130.876 54.8705 136.896 71.4266C142.077 85.6745 146.24 97.3853 146.147 97.4506C146.055 97.5165 142.969 99.3044 139.288 101.424C128.511 107.63 125.36 111.986 125.35 120.69C125.342 127.443 126.941 130.628 133.262 136.454C139.263 141.985 141.818 143.252 147.519 143.526C151.268 143.706 152.386 143.526 155.021 142.32C161.34 139.427 165.166 133.655 165.179 126.996C165.185 124.084 164.67 121.804 162.823 116.562L161.494 112.789C160.956 111.262 159.166 110.597 157.762 111.403C156.278 112.255 154.512 113.339 153.838 113.812C153.114 114.32 152.816 115.249 153.11 116.084L154.633 120.404C156.958 127.002 156.895 128.815 154.235 131.845C152.22 134.14 149.253 135.279 146.589 134.779C144.338 134.356 136.395 127.801 135.1 125.297C133.862 122.903 133.98 117.952 135.329 115.741C136.905 113.157 138.482 112.123 156.27 102.013C165.083 97.0041 173.142 92.0572 174.179 91.0197C177.109 88.09 178.515 84.8238 178.801 80.2788C179.261 72.9611 176.004 67.1487 169.669 63.9829C167.352 62.8252 164.798 62.2225 162.209 62.2225H151.485C146.464 62.2225 141.985 59.0679 140.294 54.3408C136.292 43.1522 135.028 40.4501 132.624 37.9354C129.355 34.5162 125.621 33 120.472 33C117.137 33 115.53 33.3044 113.307 34.3585ZM94.2136 71.1217C94.5409 71.449 87.4158 91.4639 86.7154 92.1839C86.2453 92.6671 75.724 86.8765 73.5377 84.9316C69.2965 81.1575 70.3197 74.2749 75.4746 71.9012C77.3519 71.0374 79.2298 70.8437 85.8401 70.8334C90.2802 70.8265 94.0485 70.956 94.2136 71.1217ZM165.16 71.7385C170.498 73.8743 171.734 81.1214 167.406 84.9127C165.082 86.9487 154.722 92.6895 154.248 92.2034C153.535 91.4708 146.397 71.4547 146.73 71.1217C146.896 70.956 150.594 70.8207 154.949 70.8207C160.872 70.8207 163.445 71.0517 165.16 71.7385Z" fill="#F5EDE2"/>
<mask id="path-2-outside-1_11_32" maskUnits="userSpaceOnUse" x="0" y="158.618" width="118" height="50" fill="black">
<rect fill="white" y="158.618" width="118" height="50"/>
<path d="M50.3533 159.618C52.3325 159.618 54.0374 159.98 55.4679 160.705C56.918 161.411 58.1624 162.371 59.201 163.586C60.2592 164.782 61.1214 166.173 61.7877 167.76C62.4736 169.347 63.0027 171.003 63.375 172.728C63.7669 174.452 64.0413 176.177 64.198 177.901C64.3548 179.626 64.4332 181.252 64.4332 182.781C64.4332 191.658 62.4736 198.399 58.5543 203.004C57.0258 204.768 55.3895 206.012 53.6454 206.737C51.9014 207.462 50.4218 207.825 49.2069 207.825C47.698 207.825 46.238 207.462 44.8271 206.737C43.4162 206.012 42.2502 205.013 41.3292 203.739C40.2514 205.13 38.9482 206.159 37.4197 206.825C35.8912 207.492 34.2255 207.825 32.4227 207.825C30.6198 207.825 29.0913 207.55 27.8371 207.002C26.6026 206.473 25.5835 205.777 24.7801 204.915C23.9767 204.052 23.3594 203.082 22.9283 202.005C22.5167 200.907 22.2032 199.829 21.9876 198.771C21.7917 197.713 21.6741 196.723 21.6349 195.802C21.5957 194.862 21.5761 194.098 21.5761 193.51V172.61C21.5761 169.769 20.9784 167.731 19.783 166.496C18.6073 165.242 16.6574 164.615 13.9336 164.615C12.8166 164.615 11.7878 164.831 10.8471 165.262C9.90651 165.673 9.09327 166.241 8.4074 166.967C7.72153 167.672 7.18263 168.534 6.7907 169.553C6.41837 170.553 6.23221 171.65 6.23221 172.845V173.345C6.23221 175.266 6.71232 176.794 7.67254 177.931C8.63276 179.048 9.93591 179.626 11.582 179.665C12.4246 179.665 13.2477 179.302 14.0511 178.577C13.0125 177.774 12.4932 176.843 12.4932 175.785C12.5324 174.825 12.9145 174.011 13.6396 173.345C14.3647 172.659 15.2465 172.316 16.2851 172.316C17.3237 172.316 18.2153 172.659 18.96 173.345C19.7047 174.011 20.0966 174.825 20.1358 175.785C20.1358 176.961 19.9104 178.058 19.4597 179.077C19.0286 180.096 18.4309 180.997 17.6666 181.781C16.9024 182.565 16.001 183.182 14.9624 183.633C13.9238 184.064 12.797 184.28 11.582 184.28C9.9751 184.28 8.51518 184.015 7.20223 183.486C5.90887 182.937 4.80168 182.173 3.88065 181.193C2.95963 180.214 2.24436 179.048 1.73486 177.695C1.24495 176.343 1 174.893 1 173.345V172.845C1 171.003 1.32334 169.298 1.97002 167.731C2.63629 166.163 3.53772 164.811 4.6743 163.674C5.83049 162.518 7.20223 161.617 8.78953 160.97C10.3768 160.304 12.0915 159.971 13.9336 159.971C16.5791 159.971 18.7444 160.363 20.4297 161.146C22.115 161.93 23.428 162.93 24.3686 164.145C25.3288 165.34 25.9755 166.692 26.3086 168.201C26.6417 169.69 26.8083 171.16 26.8083 172.61V193.51C26.8083 195.704 26.9651 197.458 27.2786 198.771C27.6118 200.065 28.0429 201.035 28.572 201.681C29.1011 202.328 29.689 202.74 30.3356 202.916C31.0019 203.092 31.6976 203.18 32.4227 203.18C33.8336 203.18 34.98 202.867 35.8618 202.24C36.7436 201.593 37.4197 200.76 37.89 199.741C38.3799 198.703 38.7131 197.566 38.8894 196.332C39.0658 195.077 39.154 193.853 39.154 192.657V174.227H44.4744V195.42C44.4744 197.145 44.6507 198.536 45.0035 199.594C45.3562 200.633 45.7873 201.417 46.2968 201.946C46.8063 202.455 47.3256 202.789 47.8547 202.945C48.4034 203.102 48.8541 203.18 49.2069 203.18C49.6576 203.18 50.3827 202.965 51.3821 202.534C52.3815 202.083 53.4495 201.221 54.5861 199.947C56.095 198.183 57.2316 195.861 57.9958 192.981C58.7601 190.08 59.1422 186.68 59.1422 182.781C59.1422 178.646 58.8091 175.364 58.1428 172.934C57.4961 170.504 56.7025 168.652 55.7618 167.378C54.8408 166.085 53.8806 165.242 52.8812 164.85C51.8818 164.439 51.0391 164.233 50.3533 164.233C49.8438 164.311 49.3636 164.458 48.9129 164.674C48.9129 164.752 48.9227 164.84 48.9423 164.938V165.115C48.9619 165.193 48.9717 165.281 48.9717 165.379C48.9717 166.261 48.619 167.015 47.9135 167.643C47.2081 168.27 46.3556 168.583 45.3562 168.583C44.396 168.583 43.5631 168.27 42.8577 167.643C42.1522 167.015 41.7995 166.261 41.7995 165.379C41.7995 164.419 42.0738 163.576 42.6225 162.851C43.1712 162.126 43.8669 161.529 44.7095 161.058C45.5522 160.568 46.4732 160.206 47.4726 159.971C48.472 159.735 49.4322 159.618 50.3533 159.618Z"/>
<path d="M89.0951 204.033H83.5984V200.711C82.5598 201.926 81.3644 202.838 80.0123 203.445C78.6601 204.033 77.2198 204.327 75.6913 204.327H75.5737C74.2803 204.327 73.0654 204.092 71.9288 203.621C70.8118 203.151 69.832 202.514 68.9893 201.711C68.1663 200.888 67.5098 199.937 67.0199 198.859C66.5496 197.762 66.3144 196.596 66.3144 195.362C66.3144 194.46 66.4418 193.588 66.6966 192.745C66.9513 191.903 67.3139 191.129 67.7842 190.423C68.2741 189.698 68.862 189.052 69.5478 188.483C70.2337 187.915 70.998 187.454 71.8406 187.102L72.7518 186.778C73.81 186.426 74.9074 186.053 76.044 185.661C77.1806 185.25 78.2486 184.809 79.248 184.339C80.267 183.849 81.1586 183.329 81.9229 182.781C82.6871 182.232 83.226 181.644 83.5396 181.017C83.5004 180.684 83.4024 180.341 83.2456 179.988C83.0889 179.636 82.8243 179.312 82.452 179.018C82.0993 178.724 81.6191 178.489 81.0117 178.313C80.4042 178.117 79.6105 178.019 78.6307 178.019C77.4549 178.019 76.5339 178.146 75.8676 178.401C75.221 178.656 74.731 178.979 74.3979 179.371C74.6723 180.018 74.8094 180.586 74.8094 181.076C74.8094 181.507 74.7115 181.918 74.5155 182.31C74.3391 182.683 74.0942 183.016 73.7806 183.31C73.4671 183.584 73.0948 183.8 72.6636 183.956C72.2521 184.113 71.8112 184.192 71.3409 184.192C70.8314 184.192 70.3611 184.113 69.93 183.956C69.4988 183.8 69.1167 183.584 68.7836 183.31C68.47 183.016 68.2153 182.683 68.0193 182.31C67.843 181.918 67.7548 181.507 67.7548 181.076C67.7548 179.9 67.9997 178.852 68.4896 177.931C68.9795 176.99 69.685 176.196 70.606 175.55C71.5467 174.903 72.693 174.403 74.0452 174.051C75.3973 173.698 76.9258 173.521 78.6307 173.521C81.8053 173.521 84.245 174.256 85.9499 175.726C87.6548 177.176 88.5072 179.253 88.5072 181.958V202.446L89.0951 204.033ZM83.5984 187.396C82.7557 187.709 81.9229 188.033 81.0998 188.366C80.2964 188.679 79.4636 189.003 78.6013 189.336C77.7979 189.669 77.0042 189.992 76.2204 190.306C75.4365 190.619 74.6331 190.933 73.81 191.246C73.0458 191.579 72.4187 192.118 71.9288 192.863C71.4585 193.588 71.2233 194.421 71.2233 195.362C71.2233 195.969 71.3311 196.537 71.5467 197.066C71.7622 197.596 72.0562 198.066 72.4285 198.477C72.8204 198.869 73.2809 199.183 73.81 199.418C74.3391 199.653 74.9074 199.771 75.5149 199.771H75.6913C76.9062 199.771 77.9938 199.585 78.9541 199.212C79.9339 198.82 80.7667 198.213 81.4526 197.39C82.1384 196.547 82.6675 195.479 83.0399 194.186C83.4122 192.892 83.5984 191.334 83.5984 189.512V187.396Z"/>
<path d="M116.109 188.366L110.024 189.688L110.641 188.042C110.622 184.966 110.805 187.317 110.785 184.28C110.785 186.778 110.582 187.082 110.582 183.986C110.563 183.32 110.426 182.693 110.171 182.105C109.936 181.517 109.603 180.997 109.172 180.547C108.74 180.076 108.241 179.704 107.672 179.43C107.104 179.155 106.477 179.008 105.791 178.989C104.557 179.028 103.43 179.253 102.411 179.665C101.392 180.057 100.51 180.655 99.7653 181.458C98.2368 183.065 97.4725 185.691 97.4725 189.336L97.4432 202.387L98.031 204.033H92.0052L92.5637 202.387V177.313L91.5349 176.196L97.4725 174.315V178.93C98.4132 177.382 99.5791 176.245 100.97 175.52C102.381 174.776 103.988 174.403 105.791 174.403C107.143 174.403 108.407 174.658 109.583 175.168C110.778 175.677 111.817 176.363 112.699 177.225C113.581 178.087 114.276 179.106 114.786 180.282C115.295 181.438 115.55 182.673 115.55 183.986V186.778L116.109 188.366Z"/>
</mask>
<path d="M50.3533 159.618C52.3325 159.618 54.0374 159.98 55.4679 160.705C56.918 161.411 58.1624 162.371 59.201 163.586C60.2592 164.782 61.1214 166.173 61.7877 167.76C62.4736 169.347 63.0027 171.003 63.375 172.728C63.7669 174.452 64.0413 176.177 64.198 177.901C64.3548 179.626 64.4332 181.252 64.4332 182.781C64.4332 191.658 62.4736 198.399 58.5543 203.004C57.0258 204.768 55.3895 206.012 53.6454 206.737C51.9014 207.462 50.4218 207.825 49.2069 207.825C47.698 207.825 46.238 207.462 44.8271 206.737C43.4162 206.012 42.2502 205.013 41.3292 203.739C40.2514 205.13 38.9482 206.159 37.4197 206.825C35.8912 207.492 34.2255 207.825 32.4227 207.825C30.6198 207.825 29.0913 207.55 27.8371 207.002C26.6026 206.473 25.5835 205.777 24.7801 204.915C23.9767 204.052 23.3594 203.082 22.9283 202.005C22.5167 200.907 22.2032 199.829 21.9876 198.771C21.7917 197.713 21.6741 196.723 21.6349 195.802C21.5957 194.862 21.5761 194.098 21.5761 193.51V172.61C21.5761 169.769 20.9784 167.731 19.783 166.496C18.6073 165.242 16.6574 164.615 13.9336 164.615C12.8166 164.615 11.7878 164.831 10.8471 165.262C9.90651 165.673 9.09327 166.241 8.4074 166.967C7.72153 167.672 7.18263 168.534 6.7907 169.553C6.41837 170.553 6.23221 171.65 6.23221 172.845V173.345C6.23221 175.266 6.71232 176.794 7.67254 177.931C8.63276 179.048 9.93591 179.626 11.582 179.665C12.4246 179.665 13.2477 179.302 14.0511 178.577C13.0125 177.774 12.4932 176.843 12.4932 175.785C12.5324 174.825 12.9145 174.011 13.6396 173.345C14.3647 172.659 15.2465 172.316 16.2851 172.316C17.3237 172.316 18.2153 172.659 18.96 173.345C19.7047 174.011 20.0966 174.825 20.1358 175.785C20.1358 176.961 19.9104 178.058 19.4597 179.077C19.0286 180.096 18.4309 180.997 17.6666 181.781C16.9024 182.565 16.001 183.182 14.9624 183.633C13.9238 184.064 12.797 184.28 11.582 184.28C9.9751 184.28 8.51518 184.015 7.20223 183.486C5.90887 182.937 4.80168 182.173 3.88065 181.193C2.95963 180.214 2.24436 179.048 1.73486 177.695C1.24495 176.343 1 174.893 1 173.345V172.845C1 171.003 1.32334 169.298 1.97002 167.731C2.63629 166.163 3.53772 164.811 4.6743 163.674C5.83049 162.518 7.20223 161.617 8.78953 160.97C10.3768 160.304 12.0915 159.971 13.9336 159.971C16.5791 159.971 18.7444 160.363 20.4297 161.146C22.115 161.93 23.428 162.93 24.3686 164.145C25.3288 165.34 25.9755 166.692 26.3086 168.201C26.6417 169.69 26.8083 171.16 26.8083 172.61V193.51C26.8083 195.704 26.9651 197.458 27.2786 198.771C27.6118 200.065 28.0429 201.035 28.572 201.681C29.1011 202.328 29.689 202.74 30.3356 202.916C31.0019 203.092 31.6976 203.18 32.4227 203.18C33.8336 203.18 34.98 202.867 35.8618 202.24C36.7436 201.593 37.4197 200.76 37.89 199.741C38.3799 198.703 38.7131 197.566 38.8894 196.332C39.0658 195.077 39.154 193.853 39.154 192.657V174.227H44.4744V195.42C44.4744 197.145 44.6507 198.536 45.0035 199.594C45.3562 200.633 45.7873 201.417 46.2968 201.946C46.8063 202.455 47.3256 202.789 47.8547 202.945C48.4034 203.102 48.8541 203.18 49.2069 203.18C49.6576 203.18 50.3827 202.965 51.3821 202.534C52.3815 202.083 53.4495 201.221 54.5861 199.947C56.095 198.183 57.2316 195.861 57.9958 192.981C58.7601 190.08 59.1422 186.68 59.1422 182.781C59.1422 178.646 58.8091 175.364 58.1428 172.934C57.4961 170.504 56.7025 168.652 55.7618 167.378C54.8408 166.085 53.8806 165.242 52.8812 164.85C51.8818 164.439 51.0391 164.233 50.3533 164.233C49.8438 164.311 49.3636 164.458 48.9129 164.674C48.9129 164.752 48.9227 164.84 48.9423 164.938V165.115C48.9619 165.193 48.9717 165.281 48.9717 165.379C48.9717 166.261 48.619 167.015 47.9135 167.643C47.2081 168.27 46.3556 168.583 45.3562 168.583C44.396 168.583 43.5631 168.27 42.8577 167.643C42.1522 167.015 41.7995 166.261 41.7995 165.379C41.7995 164.419 42.0738 163.576 42.6225 162.851C43.1712 162.126 43.8669 161.529 44.7095 161.058C45.5522 160.568 46.4732 160.206 47.4726 159.971C48.472 159.735 49.4322 159.618 50.3533 159.618Z" fill="#F5EDE2"/>
<path d="M89.0951 204.033H83.5984V200.711C82.5598 201.926 81.3644 202.838 80.0123 203.445C78.6601 204.033 77.2198 204.327 75.6913 204.327H75.5737C74.2803 204.327 73.0654 204.092 71.9288 203.621C70.8118 203.151 69.832 202.514 68.9893 201.711C68.1663 200.888 67.5098 199.937 67.0199 198.859C66.5496 197.762 66.3144 196.596 66.3144 195.362C66.3144 194.46 66.4418 193.588 66.6966 192.745C66.9513 191.903 67.3139 191.129 67.7842 190.423C68.2741 189.698 68.862 189.052 69.5478 188.483C70.2337 187.915 70.998 187.454 71.8406 187.102L72.7518 186.778C73.81 186.426 74.9074 186.053 76.044 185.661C77.1806 185.25 78.2486 184.809 79.248 184.339C80.267 183.849 81.1586 183.329 81.9229 182.781C82.6871 182.232 83.226 181.644 83.5396 181.017C83.5004 180.684 83.4024 180.341 83.2456 179.988C83.0889 179.636 82.8243 179.312 82.452 179.018C82.0993 178.724 81.6191 178.489 81.0117 178.313C80.4042 178.117 79.6105 178.019 78.6307 178.019C77.4549 178.019 76.5339 178.146 75.8676 178.401C75.221 178.656 74.731 178.979 74.3979 179.371C74.6723 180.018 74.8094 180.586 74.8094 181.076C74.8094 181.507 74.7115 181.918 74.5155 182.31C74.3391 182.683 74.0942 183.016 73.7806 183.31C73.4671 183.584 73.0948 183.8 72.6636 183.956C72.2521 184.113 71.8112 184.192 71.3409 184.192C70.8314 184.192 70.3611 184.113 69.93 183.956C69.4988 183.8 69.1167 183.584 68.7836 183.31C68.47 183.016 68.2153 182.683 68.0193 182.31C67.843 181.918 67.7548 181.507 67.7548 181.076C67.7548 179.9 67.9997 178.852 68.4896 177.931C68.9795 176.99 69.685 176.196 70.606 175.55C71.5467 174.903 72.693 174.403 74.0452 174.051C75.3973 173.698 76.9258 173.521 78.6307 173.521C81.8053 173.521 84.245 174.256 85.9499 175.726C87.6548 177.176 88.5072 179.253 88.5072 181.958V202.446L89.0951 204.033ZM83.5984 187.396C82.7557 187.709 81.9229 188.033 81.0998 188.366C80.2964 188.679 79.4636 189.003 78.6013 189.336C77.7979 189.669 77.0042 189.992 76.2204 190.306C75.4365 190.619 74.6331 190.933 73.81 191.246C73.0458 191.579 72.4187 192.118 71.9288 192.863C71.4585 193.588 71.2233 194.421 71.2233 195.362C71.2233 195.969 71.3311 196.537 71.5467 197.066C71.7622 197.596 72.0562 198.066 72.4285 198.477C72.8204 198.869 73.2809 199.183 73.81 199.418C74.3391 199.653 74.9074 199.771 75.5149 199.771H75.6913C76.9062 199.771 77.9938 199.585 78.9541 199.212C79.9339 198.82 80.7667 198.213 81.4526 197.39C82.1384 196.547 82.6675 195.479 83.0399 194.186C83.4122 192.892 83.5984 191.334 83.5984 189.512V187.396Z" fill="#F5EDE2"/>
<path d="M116.109 188.366L110.024 189.688L110.641 188.042C110.622 184.966 110.805 187.317 110.785 184.28C110.785 186.778 110.582 187.082 110.582 183.986C110.563 183.32 110.426 182.693 110.171 182.105C109.936 181.517 109.603 180.997 109.172 180.547C108.74 180.076 108.241 179.704 107.672 179.43C107.104 179.155 106.477 179.008 105.791 178.989C104.557 179.028 103.43 179.253 102.411 179.665C101.392 180.057 100.51 180.655 99.7653 181.458C98.2368 183.065 97.4725 185.691 97.4725 189.336L97.4432 202.387L98.031 204.033H92.0052L92.5637 202.387V177.313L91.5349 176.196L97.4725 174.315V178.93C98.4132 177.382 99.5791 176.245 100.97 175.52C102.381 174.776 103.988 174.403 105.791 174.403C107.143 174.403 108.407 174.658 109.583 175.168C110.778 175.677 111.817 176.363 112.699 177.225C113.581 178.087 114.276 179.106 114.786 180.282C115.295 181.438 115.55 182.673 115.55 183.986V186.778L116.109 188.366Z" fill="#F5EDE2"/>
<path d="M50.3533 159.618C52.3325 159.618 54.0374 159.98 55.4679 160.705C56.918 161.411 58.1624 162.371 59.201 163.586C60.2592 164.782 61.1214 166.173 61.7877 167.76C62.4736 169.347 63.0027 171.003 63.375 172.728C63.7669 174.452 64.0413 176.177 64.198 177.901C64.3548 179.626 64.4332 181.252 64.4332 182.781C64.4332 191.658 62.4736 198.399 58.5543 203.004C57.0258 204.768 55.3895 206.012 53.6454 206.737C51.9014 207.462 50.4218 207.825 49.2069 207.825C47.698 207.825 46.238 207.462 44.8271 206.737C43.4162 206.012 42.2502 205.013 41.3292 203.739C40.2514 205.13 38.9482 206.159 37.4197 206.825C35.8912 207.492 34.2255 207.825 32.4227 207.825C30.6198 207.825 29.0913 207.55 27.8371 207.002C26.6026 206.473 25.5835 205.777 24.7801 204.915C23.9767 204.052 23.3594 203.082 22.9283 202.005C22.5167 200.907 22.2032 199.829 21.9876 198.771C21.7917 197.713 21.6741 196.723 21.6349 195.802C21.5957 194.862 21.5761 194.098 21.5761 193.51V172.61C21.5761 169.769 20.9784 167.731 19.783 166.496C18.6073 165.242 16.6574 164.615 13.9336 164.615C12.8166 164.615 11.7878 164.831 10.8471 165.262C9.90651 165.673 9.09327 166.241 8.4074 166.967C7.72153 167.672 7.18263 168.534 6.7907 169.553C6.41837 170.553 6.23221 171.65 6.23221 172.845V173.345C6.23221 175.266 6.71232 176.794 7.67254 177.931C8.63276 179.048 9.93591 179.626 11.582 179.665C12.4246 179.665 13.2477 179.302 14.0511 178.577C13.0125 177.774 12.4932 176.843 12.4932 175.785C12.5324 174.825 12.9145 174.011 13.6396 173.345C14.3647 172.659 15.2465 172.316 16.2851 172.316C17.3237 172.316 18.2153 172.659 18.96 173.345C19.7047 174.011 20.0966 174.825 20.1358 175.785C20.1358 176.961 19.9104 178.058 19.4597 179.077C19.0286 180.096 18.4309 180.997 17.6666 181.781C16.9024 182.565 16.001 183.182 14.9624 183.633C13.9238 184.064 12.797 184.28 11.582 184.28C9.9751 184.28 8.51518 184.015 7.20223 183.486C5.90887 182.937 4.80168 182.173 3.88065 181.193C2.95963 180.214 2.24436 179.048 1.73486 177.695C1.24495 176.343 1 174.893 1 173.345V172.845C1 171.003 1.32334 169.298 1.97002 167.731C2.63629 166.163 3.53772 164.811 4.6743 163.674C5.83049 162.518 7.20223 161.617 8.78953 160.97C10.3768 160.304 12.0915 159.971 13.9336 159.971C16.5791 159.971 18.7444 160.363 20.4297 161.146C22.115 161.93 23.428 162.93 24.3686 164.145C25.3288 165.34 25.9755 166.692 26.3086 168.201C26.6417 169.69 26.8083 171.16 26.8083 172.61V193.51C26.8083 195.704 26.9651 197.458 27.2786 198.771C27.6118 200.065 28.0429 201.035 28.572 201.681C29.1011 202.328 29.689 202.74 30.3356 202.916C31.0019 203.092 31.6976 203.18 32.4227 203.18C33.8336 203.18 34.98 202.867 35.8618 202.24C36.7436 201.593 37.4197 200.76 37.89 199.741C38.3799 198.703 38.7131 197.566 38.8894 196.332C39.0658 195.077 39.154 193.853 39.154 192.657V174.227H44.4744V195.42C44.4744 197.145 44.6507 198.536 45.0035 199.594C45.3562 200.633 45.7873 201.417 46.2968 201.946C46.8063 202.455 47.3256 202.789 47.8547 202.945C48.4034 203.102 48.8541 203.18 49.2069 203.18C49.6576 203.18 50.3827 202.965 51.3821 202.534C52.3815 202.083 53.4495 201.221 54.5861 199.947C56.095 198.183 57.2316 195.861 57.9958 192.981C58.7601 190.08 59.1422 186.68 59.1422 182.781C59.1422 178.646 58.8091 175.364 58.1428 172.934C57.4961 170.504 56.7025 168.652 55.7618 167.378C54.8408 166.085 53.8806 165.242 52.8812 164.85C51.8818 164.439 51.0391 164.233 50.3533 164.233C49.8438 164.311 49.3636 164.458 48.9129 164.674C48.9129 164.752 48.9227 164.84 48.9423 164.938V165.115C48.9619 165.193 48.9717 165.281 48.9717 165.379C48.9717 166.261 48.619 167.015 47.9135 167.643C47.2081 168.27 46.3556 168.583 45.3562 168.583C44.396 168.583 43.5631 168.27 42.8577 167.643C42.1522 167.015 41.7995 166.261 41.7995 165.379C41.7995 164.419 42.0738 163.576 42.6225 162.851C43.1712 162.126 43.8669 161.529 44.7095 161.058C45.5522 160.568 46.4732 160.206 47.4726 159.971C48.472 159.735 49.4322 159.618 50.3533 159.618Z" stroke="#F5EDE2" stroke-width="1.50193" mask="url(#path-2-outside-1_11_32)"/>
<path d="M89.0951 204.033H83.5984V200.711C82.5598 201.926 81.3644 202.838 80.0123 203.445C78.6601 204.033 77.2198 204.327 75.6913 204.327H75.5737C74.2803 204.327 73.0654 204.092 71.9288 203.621C70.8118 203.151 69.832 202.514 68.9893 201.711C68.1663 200.888 67.5098 199.937 67.0199 198.859C66.5496 197.762 66.3144 196.596 66.3144 195.362C66.3144 194.46 66.4418 193.588 66.6966 192.745C66.9513 191.903 67.3139 191.129 67.7842 190.423C68.2741 189.698 68.862 189.052 69.5478 188.483C70.2337 187.915 70.998 187.454 71.8406 187.102L72.7518 186.778C73.81 186.426 74.9074 186.053 76.044 185.661C77.1806 185.25 78.2486 184.809 79.248 184.339C80.267 183.849 81.1586 183.329 81.9229 182.781C82.6871 182.232 83.226 181.644 83.5396 181.017C83.5004 180.684 83.4024 180.341 83.2456 179.988C83.0889 179.636 82.8243 179.312 82.452 179.018C82.0993 178.724 81.6191 178.489 81.0117 178.313C80.4042 178.117 79.6105 178.019 78.6307 178.019C77.4549 178.019 76.5339 178.146 75.8676 178.401C75.221 178.656 74.731 178.979 74.3979 179.371C74.6723 180.018 74.8094 180.586 74.8094 181.076C74.8094 181.507 74.7115 181.918 74.5155 182.31C74.3391 182.683 74.0942 183.016 73.7806 183.31C73.4671 183.584 73.0948 183.8 72.6636 183.956C72.2521 184.113 71.8112 184.192 71.3409 184.192C70.8314 184.192 70.3611 184.113 69.93 183.956C69.4988 183.8 69.1167 183.584 68.7836 183.31C68.47 183.016 68.2153 182.683 68.0193 182.31C67.843 181.918 67.7548 181.507 67.7548 181.076C67.7548 179.9 67.9997 178.852 68.4896 177.931C68.9795 176.99 69.685 176.196 70.606 175.55C71.5467 174.903 72.693 174.403 74.0452 174.051C75.3973 173.698 76.9258 173.521 78.6307 173.521C81.8053 173.521 84.245 174.256 85.9499 175.726C87.6548 177.176 88.5072 179.253 88.5072 181.958V202.446L89.0951 204.033ZM83.5984 187.396C82.7557 187.709 81.9229 188.033 81.0998 188.366C80.2964 188.679 79.4636 189.003 78.6013 189.336C77.7979 189.669 77.0042 189.992 76.2204 190.306C75.4365 190.619 74.6331 190.933 73.81 191.246C73.0458 191.579 72.4187 192.118 71.9288 192.863C71.4585 193.588 71.2233 194.421 71.2233 195.362C71.2233 195.969 71.3311 196.537 71.5467 197.066C71.7622 197.596 72.0562 198.066 72.4285 198.477C72.8204 198.869 73.2809 199.183 73.81 199.418C74.3391 199.653 74.9074 199.771 75.5149 199.771H75.6913C76.9062 199.771 77.9938 199.585 78.9541 199.212C79.9339 198.82 80.7667 198.213 81.4526 197.39C82.1384 196.547 82.6675 195.479 83.0399 194.186C83.4122 192.892 83.5984 191.334 83.5984 189.512V187.396Z" stroke="#F5EDE2" stroke-width="1.50193" mask="url(#path-2-outside-1_11_32)"/>
<path d="M116.109 188.366L110.024 189.688L110.641 188.042C110.622 184.966 110.805 187.317 110.785 184.28C110.785 186.778 110.582 187.082 110.582 183.986C110.563 183.32 110.426 182.693 110.171 182.105C109.936 181.517 109.603 180.997 109.172 180.547C108.74 180.076 108.241 179.704 107.672 179.43C107.104 179.155 106.477 179.008 105.791 178.989C104.557 179.028 103.43 179.253 102.411 179.665C101.392 180.057 100.51 180.655 99.7653 181.458C98.2368 183.065 97.4725 185.691 97.4725 189.336L97.4432 202.387L98.031 204.033H92.0052L92.5637 202.387V177.313L91.5349 176.196L97.4725 174.315V178.93C98.4132 177.382 99.5791 176.245 100.97 175.52C102.381 174.776 103.988 174.403 105.791 174.403C107.143 174.403 108.407 174.658 109.583 175.168C110.778 175.677 111.817 176.363 112.699 177.225C113.581 178.087 114.276 179.106 114.786 180.282C115.295 181.438 115.55 182.673 115.55 183.986V186.778L116.109 188.366Z" stroke="#F5EDE2" stroke-width="1.50193" mask="url(#path-2-outside-1_11_32)"/>
<mask id="path-3-outside-2_11_32" maskUnits="userSpaceOnUse" x="105.728" y="159.116" width="135" height="51" fill="black">
<rect fill="white" x="105.728" y="159.116" width="135" height="51"/>
<path d="M136.33 160.261C139.811 160.261 142.861 160.955 145.482 162.344C148.102 163.712 150.303 165.551 152.082 167.858C153.881 170.166 155.231 172.816 156.13 175.808C157.03 178.781 157.499 181.89 157.538 185.136C157.499 188.422 157.196 191.277 156.629 193.702C156.062 196.127 155.338 198.2 154.458 199.921C153.578 201.642 152.6 203.05 151.525 204.145C150.449 205.24 149.354 206.101 148.239 206.727C147.144 207.352 146.098 207.793 145.101 208.047C144.103 208.301 143.223 208.457 142.46 208.516C140.896 208.516 139.468 208.35 138.178 208.017C136.906 207.704 135.694 207.255 134.54 206.668C133.406 206.081 132.311 205.387 131.255 204.585C130.199 203.783 129.084 202.903 127.911 201.945C127.187 201.358 126.414 200.733 125.593 200.068C124.772 199.403 123.921 198.806 123.041 198.278C122.161 197.731 121.252 197.291 120.313 196.958C119.374 196.606 118.426 196.43 117.467 196.43C116.138 196.43 114.954 196.792 113.918 197.516C112.881 198.239 112.344 199.295 112.305 200.684C112.344 201.779 112.705 202.708 113.39 203.471C114.094 204.214 115.033 204.585 116.206 204.585C116.636 204.585 117.115 204.487 117.643 204.292C117.37 203.647 117.233 203.128 117.233 202.737C117.272 201.818 117.614 201.046 118.259 200.42C118.924 199.794 119.716 199.481 120.636 199.481C121.516 199.481 122.278 199.765 122.924 200.332C123.569 200.899 123.931 201.583 124.009 202.385V202.737C124.009 203.011 123.99 203.226 123.95 203.383C123.833 204.36 123.53 205.201 123.041 205.905C122.572 206.629 121.975 207.225 121.252 207.695C120.528 208.184 119.726 208.555 118.846 208.809C117.966 209.083 117.086 209.22 116.206 209.22C114.994 209.22 113.84 209.005 112.745 208.575C111.649 208.164 110.681 207.577 109.84 206.815C109 206.052 108.325 205.152 107.816 204.116C107.308 203.079 107.054 201.935 107.054 200.684C107.054 199.295 107.347 198.044 107.934 196.929C108.52 195.795 109.303 194.846 110.28 194.083C111.258 193.321 112.363 192.744 113.595 192.353C114.847 191.942 116.138 191.737 117.467 191.737C119.501 191.737 121.447 192.167 123.305 193.027C125.182 193.888 126.923 194.924 128.527 196.137V172.464L127.5 171.32L133.748 169.384V200.332L133.572 200.273C134.765 201.192 136.046 202.023 137.415 202.767C138.803 203.51 140.28 203.881 141.844 203.881L142.226 203.823C145.453 203.666 147.926 201.994 149.647 198.806C151.388 195.619 152.258 191.062 152.258 185.136C152.258 182.653 151.955 180.208 151.349 177.803C150.743 175.397 149.794 173.246 148.503 171.349C147.232 169.452 145.59 167.917 143.575 166.744C141.58 165.551 139.185 164.954 136.388 164.954C135.058 164.954 133.748 165.13 132.457 165.482C131.186 165.815 130.013 166.323 128.937 167.008C127.862 167.673 126.943 168.523 126.18 169.56C125.417 170.577 124.889 171.779 124.596 173.168C125.241 173.461 125.75 173.882 126.121 174.429C126.512 174.957 126.708 175.525 126.708 176.131C126.708 177.05 126.356 177.822 125.652 178.448C124.948 179.054 124.117 179.358 123.158 179.358C122.044 179.358 121.124 178.937 120.401 178.096L120.46 178.214C120.029 177.666 119.707 177.04 119.492 176.336C119.296 175.632 119.198 174.938 119.198 174.253C119.198 173.334 119.345 172.366 119.638 171.349C119.951 170.332 120.372 169.354 120.9 168.416C122.288 165.854 124.371 163.869 127.148 162.461C129.944 161.033 133.005 160.3 136.33 160.261ZM172.088 173.843C172.832 173.843 173.496 173.94 174.083 174.136C174.67 174.332 175.168 174.596 175.579 174.928C175.99 175.26 176.303 175.652 176.518 176.101C176.753 176.551 176.87 177.03 176.87 177.539C176.87 178.067 176.772 178.556 176.577 179.006C176.401 179.455 176.146 179.856 175.814 180.208C175.501 180.541 175.12 180.805 174.67 181C174.24 181.196 173.78 181.294 173.291 181.294C172.9 181.294 172.528 181.215 172.176 181.059C171.824 180.903 171.502 180.697 171.208 180.443C170.935 180.169 170.69 179.856 170.475 179.504C170.279 179.152 170.133 178.79 170.035 178.419C169.253 178.595 168.578 179.025 168.011 179.71C167.444 180.394 166.974 181.245 166.603 182.262C166.231 183.259 165.957 184.384 165.781 185.635C165.605 186.867 165.517 188.138 165.517 189.449L165.488 202.473L166.075 204.116H160.061L160.619 202.473V177.451L159.592 176.336L165.517 174.459V179.006C166.397 177.402 167.356 176.141 168.392 175.221C169.448 174.302 170.68 173.843 172.088 173.843ZM199.868 204.116H194.383V200.801C193.346 202.014 192.153 202.923 190.804 203.529C189.454 204.116 188.017 204.409 186.492 204.409H186.374C185.084 204.409 183.871 204.175 182.737 203.705C181.622 203.236 180.644 202.6 179.803 201.798C178.982 200.977 178.327 200.029 177.838 198.953C177.369 197.858 177.134 196.694 177.134 195.462C177.134 194.563 177.261 193.692 177.515 192.851C177.769 192.011 178.131 191.238 178.601 190.534C179.09 189.81 179.676 189.165 180.361 188.598C181.045 188.031 181.808 187.571 182.649 187.219L183.558 186.897C184.614 186.545 185.709 186.173 186.844 185.782C187.978 185.371 189.044 184.931 190.041 184.462C191.058 183.973 191.948 183.455 192.711 182.907C193.473 182.359 194.011 181.773 194.324 181.147C194.285 180.815 194.187 180.472 194.031 180.12C193.874 179.768 193.61 179.446 193.239 179.152C192.887 178.859 192.407 178.624 191.801 178.448C191.195 178.253 190.403 178.155 189.425 178.155C188.252 178.155 187.333 178.282 186.668 178.536C186.022 178.79 185.533 179.113 185.201 179.504C185.475 180.15 185.612 180.717 185.612 181.206C185.612 181.636 185.514 182.047 185.318 182.438C185.142 182.809 184.898 183.142 184.585 183.435C184.272 183.709 183.9 183.924 183.47 184.08C183.059 184.237 182.619 184.315 182.15 184.315C181.642 184.315 181.172 184.237 180.742 184.08C180.312 183.924 179.93 183.709 179.598 183.435C179.285 183.142 179.031 182.809 178.835 182.438C178.659 182.047 178.571 181.636 178.571 181.206C178.571 180.032 178.816 178.986 179.305 178.067C179.794 177.128 180.498 176.336 181.417 175.691C182.355 175.045 183.5 174.547 184.849 174.195C186.198 173.843 187.724 173.667 189.425 173.667C192.593 173.667 195.028 174.4 196.729 175.867C198.431 177.314 199.281 179.387 199.281 182.086V202.532L199.868 204.116ZM194.383 187.513C193.542 187.825 192.711 188.148 191.889 188.481C191.087 188.793 190.256 189.116 189.396 189.449C188.594 189.781 187.802 190.104 187.02 190.417C186.237 190.73 185.436 191.042 184.614 191.355C183.852 191.688 183.226 192.226 182.737 192.969C182.267 193.692 182.033 194.524 182.033 195.462C182.033 196.068 182.14 196.636 182.355 197.164C182.571 197.692 182.864 198.161 183.235 198.572C183.627 198.963 184.086 199.276 184.614 199.51C185.142 199.745 185.709 199.862 186.316 199.862H186.492C187.704 199.862 188.789 199.677 189.748 199.305C190.726 198.914 191.557 198.308 192.241 197.486C192.926 196.645 193.454 195.58 193.825 194.289C194.197 192.998 194.383 191.443 194.383 189.625V187.513ZM234.219 171.32C235.216 171.32 236.038 171.584 236.683 172.112C237.328 172.62 237.827 173.285 238.179 174.107C238.551 174.908 238.805 175.808 238.942 176.805C239.079 177.803 239.147 178.79 239.147 179.768C239.147 181.313 239.02 182.839 238.766 184.344C238.531 185.85 238.218 187.346 237.827 188.833C237.436 190.299 236.976 191.766 236.448 193.233C235.94 194.68 235.412 196.127 234.864 197.574C234.532 198.493 234.17 199.413 233.779 200.332C233.388 201.231 232.938 202.131 232.43 203.031L231.755 204.116H226.651L220.197 184.286L213.919 204.116H207.935L201.511 176.629L200.484 174.429H206.615L206.498 176.277L211.221 196.46L218.672 174.429H221.928L229.76 197.75C230.19 196.851 230.679 195.765 231.227 194.494C231.774 193.203 232.293 191.835 232.782 190.387C233.27 188.921 233.681 187.425 234.014 185.899C234.346 184.374 234.512 182.927 234.512 181.558C234.512 180.619 234.424 179.817 234.248 179.152L234.19 179.182C233.642 179.182 233.114 179.084 232.606 178.888C232.097 178.673 231.657 178.39 231.285 178.038C230.914 177.685 230.611 177.275 230.376 176.805C230.161 176.317 230.053 175.798 230.053 175.251C230.053 174.664 230.161 174.136 230.376 173.667C230.591 173.178 230.885 172.767 231.256 172.435C231.628 172.083 232.058 171.809 232.547 171.613C233.055 171.418 233.593 171.32 234.16 171.32H234.219Z"/>
</mask>
<path d="M136.33 160.261C139.811 160.261 142.861 160.955 145.482 162.344C148.102 163.712 150.303 165.551 152.082 167.858C153.881 170.166 155.231 172.816 156.13 175.808C157.03 178.781 157.499 181.89 157.538 185.136C157.499 188.422 157.196 191.277 156.629 193.702C156.062 196.127 155.338 198.2 154.458 199.921C153.578 201.642 152.6 203.05 151.525 204.145C150.449 205.24 149.354 206.101 148.239 206.727C147.144 207.352 146.098 207.793 145.101 208.047C144.103 208.301 143.223 208.457 142.46 208.516C140.896 208.516 139.468 208.35 138.178 208.017C136.906 207.704 135.694 207.255 134.54 206.668C133.406 206.081 132.311 205.387 131.255 204.585C130.199 203.783 129.084 202.903 127.911 201.945C127.187 201.358 126.414 200.733 125.593 200.068C124.772 199.403 123.921 198.806 123.041 198.278C122.161 197.731 121.252 197.291 120.313 196.958C119.374 196.606 118.426 196.43 117.467 196.43C116.138 196.43 114.954 196.792 113.918 197.516C112.881 198.239 112.344 199.295 112.305 200.684C112.344 201.779 112.705 202.708 113.39 203.471C114.094 204.214 115.033 204.585 116.206 204.585C116.636 204.585 117.115 204.487 117.643 204.292C117.37 203.647 117.233 203.128 117.233 202.737C117.272 201.818 117.614 201.046 118.259 200.42C118.924 199.794 119.716 199.481 120.636 199.481C121.516 199.481 122.278 199.765 122.924 200.332C123.569 200.899 123.931 201.583 124.009 202.385V202.737C124.009 203.011 123.99 203.226 123.95 203.383C123.833 204.36 123.53 205.201 123.041 205.905C122.572 206.629 121.975 207.225 121.252 207.695C120.528 208.184 119.726 208.555 118.846 208.809C117.966 209.083 117.086 209.22 116.206 209.22C114.994 209.22 113.84 209.005 112.745 208.575C111.649 208.164 110.681 207.577 109.84 206.815C109 206.052 108.325 205.152 107.816 204.116C107.308 203.079 107.054 201.935 107.054 200.684C107.054 199.295 107.347 198.044 107.934 196.929C108.52 195.795 109.303 194.846 110.28 194.083C111.258 193.321 112.363 192.744 113.595 192.353C114.847 191.942 116.138 191.737 117.467 191.737C119.501 191.737 121.447 192.167 123.305 193.027C125.182 193.888 126.923 194.924 128.527 196.137V172.464L127.5 171.32L133.748 169.384V200.332L133.572 200.273C134.765 201.192 136.046 202.023 137.415 202.767C138.803 203.51 140.28 203.881 141.844 203.881L142.226 203.823C145.453 203.666 147.926 201.994 149.647 198.806C151.388 195.619 152.258 191.062 152.258 185.136C152.258 182.653 151.955 180.208 151.349 177.803C150.743 175.397 149.794 173.246 148.503 171.349C147.232 169.452 145.59 167.917 143.575 166.744C141.58 165.551 139.185 164.954 136.388 164.954C135.058 164.954 133.748 165.13 132.457 165.482C131.186 165.815 130.013 166.323 128.937 167.008C127.862 167.673 126.943 168.523 126.18 169.56C125.417 170.577 124.889 171.779 124.596 173.168C125.241 173.461 125.75 173.882 126.121 174.429C126.512 174.957 126.708 175.525 126.708 176.131C126.708 177.05 126.356 177.822 125.652 178.448C124.948 179.054 124.117 179.358 123.158 179.358C122.044 179.358 121.124 178.937 120.401 178.096L120.46 178.214C120.029 177.666 119.707 177.04 119.492 176.336C119.296 175.632 119.198 174.938 119.198 174.253C119.198 173.334 119.345 172.366 119.638 171.349C119.951 170.332 120.372 169.354 120.9 168.416C122.288 165.854 124.371 163.869 127.148 162.461C129.944 161.033 133.005 160.3 136.33 160.261ZM172.088 173.843C172.832 173.843 173.496 173.94 174.083 174.136C174.67 174.332 175.168 174.596 175.579 174.928C175.99 175.26 176.303 175.652 176.518 176.101C176.753 176.551 176.87 177.03 176.87 177.539C176.87 178.067 176.772 178.556 176.577 179.006C176.401 179.455 176.146 179.856 175.814 180.208C175.501 180.541 175.12 180.805 174.67 181C174.24 181.196 173.78 181.294 173.291 181.294C172.9 181.294 172.528 181.215 172.176 181.059C171.824 180.903 171.502 180.697 171.208 180.443C170.935 180.169 170.69 179.856 170.475 179.504C170.279 179.152 170.133 178.79 170.035 178.419C169.253 178.595 168.578 179.025 168.011 179.71C167.444 180.394 166.974 181.245 166.603 182.262C166.231 183.259 165.957 184.384 165.781 185.635C165.605 186.867 165.517 188.138 165.517 189.449L165.488 202.473L166.075 204.116H160.061L160.619 202.473V177.451L159.592 176.336L165.517 174.459V179.006C166.397 177.402 167.356 176.141 168.392 175.221C169.448 174.302 170.68 173.843 172.088 173.843ZM199.868 204.116H194.383V200.801C193.346 202.014 192.153 202.923 190.804 203.529C189.454 204.116 188.017 204.409 186.492 204.409H186.374C185.084 204.409 183.871 204.175 182.737 203.705C181.622 203.236 180.644 202.6 179.803 201.798C178.982 200.977 178.327 200.029 177.838 198.953C177.369 197.858 177.134 196.694 177.134 195.462C177.134 194.563 177.261 193.692 177.515 192.851C177.769 192.011 178.131 191.238 178.601 190.534C179.09 189.81 179.676 189.165 180.361 188.598C181.045 188.031 181.808 187.571 182.649 187.219L183.558 186.897C184.614 186.545 185.709 186.173 186.844 185.782C187.978 185.371 189.044 184.931 190.041 184.462C191.058 183.973 191.948 183.455 192.711 182.907C193.473 182.359 194.011 181.773 194.324 181.147C194.285 180.815 194.187 180.472 194.031 180.12C193.874 179.768 193.61 179.446 193.239 179.152C192.887 178.859 192.407 178.624 191.801 178.448C191.195 178.253 190.403 178.155 189.425 178.155C188.252 178.155 187.333 178.282 186.668 178.536C186.022 178.79 185.533 179.113 185.201 179.504C185.475 180.15 185.612 180.717 185.612 181.206C185.612 181.636 185.514 182.047 185.318 182.438C185.142 182.809 184.898 183.142 184.585 183.435C184.272 183.709 183.9 183.924 183.47 184.08C183.059 184.237 182.619 184.315 182.15 184.315C181.642 184.315 181.172 184.237 180.742 184.08C180.312 183.924 179.93 183.709 179.598 183.435C179.285 183.142 179.031 182.809 178.835 182.438C178.659 182.047 178.571 181.636 178.571 181.206C178.571 180.032 178.816 178.986 179.305 178.067C179.794 177.128 180.498 176.336 181.417 175.691C182.355 175.045 183.5 174.547 184.849 174.195C186.198 173.843 187.724 173.667 189.425 173.667C192.593 173.667 195.028 174.4 196.729 175.867C198.431 177.314 199.281 179.387 199.281 182.086V202.532L199.868 204.116ZM194.383 187.513C193.542 187.825 192.711 188.148 191.889 188.481C191.087 188.793 190.256 189.116 189.396 189.449C188.594 189.781 187.802 190.104 187.02 190.417C186.237 190.73 185.436 191.042 184.614 191.355C183.852 191.688 183.226 192.226 182.737 192.969C182.267 193.692 182.033 194.524 182.033 195.462C182.033 196.068 182.14 196.636 182.355 197.164C182.571 197.692 182.864 198.161 183.235 198.572C183.627 198.963 184.086 199.276 184.614 199.51C185.142 199.745 185.709 199.862 186.316 199.862H186.492C187.704 199.862 188.789 199.677 189.748 199.305C190.726 198.914 191.557 198.308 192.241 197.486C192.926 196.645 193.454 195.58 193.825 194.289C194.197 192.998 194.383 191.443 194.383 189.625V187.513ZM234.219 171.32C235.216 171.32 236.038 171.584 236.683 172.112C237.328 172.62 237.827 173.285 238.179 174.107C238.551 174.908 238.805 175.808 238.942 176.805C239.079 177.803 239.147 178.79 239.147 179.768C239.147 181.313 239.02 182.839 238.766 184.344C238.531 185.85 238.218 187.346 237.827 188.833C237.436 190.299 236.976 191.766 236.448 193.233C235.94 194.68 235.412 196.127 234.864 197.574C234.532 198.493 234.17 199.413 233.779 200.332C233.388 201.231 232.938 202.131 232.43 203.031L231.755 204.116H226.651L220.197 184.286L213.919 204.116H207.935L201.511 176.629L200.484 174.429H206.615L206.498 176.277L211.221 196.46L218.672 174.429H221.928L229.76 197.75C230.19 196.851 230.679 195.765 231.227 194.494C231.774 193.203 232.293 191.835 232.782 190.387C233.27 188.921 233.681 187.425 234.014 185.899C234.346 184.374 234.512 182.927 234.512 181.558C234.512 180.619 234.424 179.817 234.248 179.152L234.19 179.182C233.642 179.182 233.114 179.084 232.606 178.888C232.097 178.673 231.657 178.39 231.285 178.038C230.914 177.685 230.611 177.275 230.376 176.805C230.161 176.317 230.053 175.798 230.053 175.251C230.053 174.664 230.161 174.136 230.376 173.667C230.591 173.178 230.885 172.767 231.256 172.435C231.628 172.083 232.058 171.809 232.547 171.613C233.055 171.418 233.593 171.32 234.16 171.32H234.219Z" fill="#F5EDE2"/>
<path d="M136.33 160.261V159.51L136.321 159.51L136.33 160.261ZM145.482 162.344L145.13 163.007L145.134 163.009L145.482 162.344ZM152.082 167.858L151.488 168.317L151.49 168.32L152.082 167.858ZM156.13 175.808L155.411 176.024L155.412 176.026L156.13 175.808ZM157.538 185.136L158.289 185.145L158.289 185.136L158.289 185.127L157.538 185.136ZM148.239 206.727L147.872 206.072L147.867 206.075L148.239 206.727ZM142.46 208.516V209.267H142.489L142.518 209.265L142.46 208.516ZM138.178 208.017L138.365 207.29L138.357 207.288L138.178 208.017ZM134.54 206.668L134.195 207.335L134.2 207.337L134.54 206.668ZM127.911 201.945L128.386 201.364L128.384 201.362L127.911 201.945ZM123.041 198.278L122.644 198.916L122.655 198.922L123.041 198.278ZM120.313 196.958L120.049 197.662L120.062 197.666L120.313 196.958ZM112.305 200.684L111.554 200.663L111.553 200.687L111.554 200.711L112.305 200.684ZM113.39 203.471L112.831 203.972L112.838 203.98L112.845 203.987L113.39 203.471ZM117.643 204.292L117.904 204.996L118.642 204.723L118.335 203.999L117.643 204.292ZM117.233 202.737L116.482 202.705L116.482 202.721V202.737H117.233ZM118.259 200.42L117.745 199.873L117.737 199.881L118.259 200.42ZM124.009 202.385H124.76V202.349L124.756 202.312L124.009 202.385ZM123.95 203.383L123.222 203.2L123.21 203.246L123.205 203.293L123.95 203.383ZM123.041 205.905L122.424 205.477L122.417 205.487L122.411 205.497L123.041 205.905ZM121.252 207.695L120.843 207.065L120.831 207.072L121.252 207.695ZM118.846 208.809L118.638 208.088L118.63 208.09L118.623 208.092L118.846 208.809ZM112.745 208.575L113.019 207.876L113.008 207.872L112.745 208.575ZM107.934 196.929L108.598 197.279L108.601 197.274L107.934 196.929ZM113.595 192.353L113.823 193.069L113.829 193.066L113.595 192.353ZM123.305 193.027L122.989 193.709L122.992 193.71L123.305 193.027ZM128.527 196.137L128.074 196.736L129.278 197.646V196.137H128.527ZM128.527 172.464H129.278V172.176L129.085 171.962L128.527 172.464ZM127.5 171.32L127.278 170.603L126.158 170.949L126.941 171.821L127.5 171.32ZM133.748 169.384H134.499V168.365L133.526 168.666L133.748 169.384ZM133.748 200.332L133.511 201.044L134.499 201.374V200.332H133.748ZM133.572 200.273L133.81 199.561L133.114 200.868L133.572 200.273ZM137.415 202.767L137.057 203.427L137.061 203.429L137.415 202.767ZM141.844 203.881V204.632H141.902L141.959 204.623L141.844 203.881ZM142.226 203.823L142.189 203.072L142.15 203.074L142.112 203.08L142.226 203.823ZM149.647 198.806L148.988 198.446L148.987 198.45L149.647 198.806ZM148.503 171.349L147.88 171.767L147.883 171.772L148.503 171.349ZM143.575 166.744L143.19 167.388L143.197 167.393L143.575 166.744ZM132.457 165.482L132.647 166.209L132.655 166.207L132.457 165.482ZM128.937 167.008L129.332 167.647L129.34 167.641L128.937 167.008ZM126.18 169.56L126.781 170.01L126.785 170.005L126.18 169.56ZM124.596 173.168L123.861 173.013L123.736 173.602L124.285 173.852L124.596 173.168ZM126.121 174.429L125.5 174.851L125.508 174.864L125.518 174.876L126.121 174.429ZM125.652 178.448L126.142 179.017L126.151 179.009L125.652 178.448ZM120.401 178.096L120.97 177.606L119.729 178.432L120.401 178.096ZM120.46 178.214L119.869 178.677L121.131 177.878L120.46 178.214ZM119.492 176.336L118.768 176.537L118.771 176.546L118.773 176.556L119.492 176.336ZM119.638 171.349L118.92 171.128L118.917 171.141L119.638 171.349ZM120.9 168.416L121.554 168.784L121.56 168.774L120.9 168.416ZM127.148 162.461L127.487 163.131L127.489 163.13L127.148 162.461ZM136.33 161.012C139.709 161.012 142.635 161.685 145.13 163.007L145.834 161.68C143.087 160.225 139.912 159.51 136.33 159.51V161.012ZM145.134 163.009C147.66 164.329 149.775 166.097 151.488 168.317L152.677 167.4C150.83 165.005 148.545 163.096 145.83 161.678L145.134 163.009ZM151.49 168.32C153.228 170.55 154.537 173.115 155.411 176.024L156.85 175.592C155.925 172.517 154.535 169.782 152.674 167.397L151.49 168.32ZM155.412 176.026C156.29 178.928 156.749 181.967 156.788 185.146L158.289 185.127C158.249 181.814 157.77 178.634 156.849 175.591L155.412 176.026ZM156.788 185.128C156.749 188.375 156.449 191.173 155.898 193.531L157.36 193.873C157.943 191.381 158.25 188.469 158.289 185.145L156.788 185.128ZM155.898 193.531C155.341 195.913 154.635 197.925 153.79 199.579L155.127 200.263C156.041 198.475 156.783 196.341 157.36 193.873L155.898 193.531ZM153.79 199.579C152.936 201.249 152 202.59 150.989 203.619L152.061 204.671C153.201 203.51 154.221 202.035 155.127 200.263L153.79 199.579ZM150.989 203.619C149.954 204.673 148.914 205.487 147.872 206.072L148.607 207.382C149.794 206.715 150.945 205.807 152.061 204.671L150.989 203.619ZM147.867 206.075C146.818 206.674 145.834 207.085 144.915 207.319L145.286 208.774C146.362 208.5 147.471 208.031 148.612 207.379L147.867 206.075ZM144.915 207.319C143.946 207.566 143.111 207.713 142.403 207.767L142.518 209.265C143.336 209.202 144.26 209.036 145.286 208.774L144.915 207.319ZM142.46 207.765C140.949 207.765 139.585 207.604 138.365 207.29L137.99 208.745C139.352 209.095 140.843 209.267 142.46 209.267V207.765ZM138.357 207.288C137.141 206.989 135.983 206.559 134.881 205.999L134.2 207.337C135.405 207.95 136.672 208.42 137.998 208.747L138.357 207.288ZM134.885 206.001C133.791 205.435 132.732 204.764 131.709 203.987L130.801 205.183C131.89 206.01 133.021 206.728 134.195 207.335L134.885 206.001ZM131.709 203.987C130.661 203.191 129.553 202.317 128.386 201.364L127.436 202.527C128.615 203.49 129.737 204.375 130.801 205.183L131.709 203.987ZM128.384 201.362C127.66 200.775 126.887 200.149 126.066 199.484L125.121 200.651C125.942 201.316 126.714 201.942 127.438 202.528L128.384 201.362ZM126.066 199.484C125.218 198.798 124.338 198.181 123.427 197.634L122.655 198.922C123.504 199.432 124.326 200.008 125.121 200.651L126.066 199.484ZM123.438 197.641C122.514 197.066 121.555 196.602 120.564 196.25L120.062 197.666C120.948 197.98 121.808 198.396 122.644 198.916L123.438 197.641ZM120.577 196.255C119.558 195.873 118.52 195.679 117.467 195.679V197.181C118.332 197.181 119.191 197.34 120.049 197.661L120.577 196.255ZM117.467 195.679C115.992 195.679 114.657 196.084 113.488 196.9L114.348 198.131C115.251 197.501 116.283 197.181 117.467 197.181V195.679ZM113.488 196.9C112.235 197.775 111.599 199.063 111.554 200.663L113.055 200.705C113.088 199.527 113.528 198.704 114.348 198.131L113.488 196.9ZM111.554 200.711C111.599 201.968 112.021 203.069 112.831 203.972L113.949 202.969C113.39 202.347 113.088 201.589 113.055 200.657L111.554 200.711ZM112.845 203.987C113.712 204.902 114.86 205.336 116.206 205.336V203.834C115.206 203.834 114.476 203.525 113.935 202.954L112.845 203.987ZM116.206 205.336C116.748 205.336 117.317 205.214 117.904 204.996L117.383 203.588C116.914 203.761 116.525 203.834 116.206 203.834V205.336ZM118.335 203.999C118.074 203.384 117.984 202.977 117.984 202.737H116.482C116.482 203.28 116.665 203.909 116.952 204.585L118.335 203.999ZM117.983 202.769C118.014 202.037 118.278 201.448 118.782 200.959L117.737 199.881C116.95 200.644 116.53 201.599 116.482 202.705L117.983 202.769ZM118.774 200.967C119.299 200.473 119.906 200.232 120.636 200.232V198.73C119.527 198.73 118.55 199.115 117.745 199.873L118.774 200.967ZM120.636 200.232C121.338 200.232 121.923 200.452 122.428 200.896L123.419 199.768C122.633 199.077 121.693 198.73 120.636 198.73V200.232ZM122.428 200.896C122.941 201.346 123.203 201.859 123.262 202.458L124.756 202.312C124.658 201.307 124.198 200.451 123.419 199.768L122.428 200.896ZM123.258 202.385V202.737H124.76V202.385H123.258ZM123.258 202.737C123.258 202.986 123.239 203.131 123.222 203.2L124.679 203.565C124.74 203.322 124.76 203.036 124.76 202.737H123.258ZM123.205 203.293C123.1 204.167 122.833 204.888 122.424 205.477L123.658 206.334C124.227 205.515 124.566 204.553 124.696 203.472L123.205 203.293ZM122.411 205.497C121.999 206.132 121.478 206.653 120.843 207.065L121.66 208.325C122.472 207.798 123.144 207.126 123.671 206.314L122.411 205.497ZM120.831 207.072C120.176 207.515 119.446 207.854 118.638 208.088L119.055 209.531C120.006 209.256 120.88 208.852 121.672 208.317L120.831 207.072ZM118.623 208.092C117.812 208.345 117.007 208.469 116.206 208.469V209.971C117.165 209.971 118.12 209.822 119.069 209.526L118.623 208.092ZM116.206 208.469C115.085 208.469 114.024 208.271 113.019 207.876L112.47 209.274C113.655 209.739 114.903 209.971 116.206 209.971V208.469ZM113.008 207.872C111.999 207.493 111.114 206.955 110.345 206.258L109.336 207.371C110.249 208.199 111.3 208.835 112.481 209.278L113.008 207.872ZM110.345 206.258C109.576 205.561 108.958 204.738 108.491 203.785L107.142 204.447C107.692 205.567 108.424 206.543 109.336 207.371L110.345 206.258ZM108.491 203.785C108.037 202.86 107.805 201.831 107.805 200.684H106.303C106.303 202.04 106.579 203.299 107.142 204.447L108.491 203.785ZM107.805 200.684C107.805 199.404 108.074 198.275 108.598 197.279L107.269 196.579C106.62 197.812 106.303 199.186 106.303 200.684H107.805ZM108.601 197.274C109.139 196.233 109.853 195.37 110.742 194.676L109.819 193.491C108.753 194.323 107.902 195.356 107.267 196.584L108.601 197.274ZM110.742 194.676C111.647 193.97 112.672 193.434 113.823 193.069L113.368 191.637C112.055 192.054 110.87 192.672 109.819 193.491L110.742 194.676ZM113.829 193.066C115.005 192.681 116.216 192.488 117.467 192.488V190.986C116.059 190.986 114.689 191.204 113.361 191.639L113.829 193.066ZM117.467 192.488C119.392 192.488 121.23 192.894 122.989 193.709L123.621 192.346C121.665 191.44 119.611 190.986 117.467 190.986V192.488ZM122.992 193.71C124.821 194.549 126.515 195.557 128.074 196.736L128.979 195.538C127.331 194.292 125.544 193.227 123.618 192.345L122.992 193.71ZM129.278 196.137V172.464H127.776V196.137H129.278ZM129.085 171.962L128.059 170.818L126.941 171.821L127.968 172.966L129.085 171.962ZM127.722 172.037L133.97 170.101L133.526 168.666L127.278 170.603L127.722 172.037ZM132.997 169.384V200.332H134.499V169.384H132.997ZM133.986 199.619L133.81 199.561L133.335 200.986L133.511 201.044L133.986 199.619ZM133.114 200.868C134.339 201.812 135.654 202.665 137.057 203.427L137.773 202.107C136.438 201.382 135.191 200.572 134.03 199.678L133.114 200.868ZM137.061 203.429C138.557 204.23 140.155 204.632 141.844 204.632V203.13C140.404 203.13 139.05 202.79 137.769 202.104L137.061 203.429ZM141.959 204.623L142.34 204.565L142.112 203.08L141.73 203.139L141.959 204.623ZM142.262 204.573C145.788 204.402 148.48 202.549 150.308 199.163L148.987 198.45C147.372 201.439 145.118 202.931 142.189 203.072L142.262 204.573ZM150.307 199.166C152.134 195.819 153.009 191.117 153.009 185.136H151.507C151.507 191.007 150.642 195.418 148.988 198.446L150.307 199.166ZM153.009 185.136C153.009 182.591 152.698 180.085 152.077 177.619L150.621 177.986C151.212 180.332 151.507 182.715 151.507 185.136H153.009ZM152.077 177.619C151.451 175.135 150.468 172.902 149.124 170.927L147.883 171.772C149.12 173.59 150.034 175.659 150.621 177.986L152.077 177.619ZM149.127 170.931C147.791 168.938 146.064 167.324 143.953 166.095L143.197 167.393C145.115 168.51 146.673 169.967 147.88 171.767L149.127 170.931ZM143.961 166.099C141.828 164.824 139.293 164.203 136.388 164.203V165.705C139.077 165.705 141.333 166.278 143.19 167.388L143.961 166.099ZM136.388 164.203C134.991 164.203 133.615 164.388 132.26 164.758L132.655 166.207C133.882 165.872 135.126 165.705 136.388 165.705V164.203ZM132.267 164.756C130.923 165.107 129.677 165.647 128.534 166.374L129.34 167.641C130.348 167 131.449 166.522 132.647 166.209L132.267 164.756ZM128.542 166.369C127.384 167.085 126.394 168.002 125.575 169.115L126.785 170.005C127.491 169.044 128.34 168.26 129.332 167.646L128.542 166.369ZM125.579 169.109C124.743 170.223 124.174 171.53 123.861 173.013L125.33 173.323C125.604 172.029 126.091 170.93 126.781 170.01L125.579 169.109ZM124.285 173.852C124.814 174.092 125.211 174.426 125.5 174.851L126.743 174.008C126.288 173.338 125.668 172.831 124.907 172.484L124.285 173.852ZM125.518 174.876C125.822 175.287 125.957 175.699 125.957 176.131H127.459C127.459 175.35 127.203 174.628 126.725 173.982L125.518 174.876ZM125.957 176.131C125.957 176.829 125.701 177.4 125.153 177.887L126.151 179.009C127.011 178.245 127.459 177.27 127.459 176.131H125.957ZM125.162 177.879C124.599 178.364 123.943 178.607 123.158 178.607V180.109C124.29 180.109 125.297 179.745 126.142 179.017L125.162 177.879ZM123.158 178.607C122.261 178.607 121.55 178.281 120.97 177.606L119.832 178.586C120.699 179.594 121.826 180.109 123.158 180.109V178.607ZM119.729 178.432L119.788 178.549L121.131 177.878L121.073 177.76L119.729 178.432ZM121.05 177.75C120.68 177.279 120.399 176.737 120.21 176.117L118.773 176.556C119.014 177.343 119.378 178.053 119.869 178.677L121.05 177.75ZM120.215 176.135C120.037 175.492 119.949 174.865 119.949 174.253H118.447C118.447 175.01 118.555 175.772 118.768 176.537L120.215 176.135ZM119.949 174.253C119.949 173.414 120.083 172.517 120.36 171.557L118.917 171.141C118.607 172.216 118.447 173.254 118.447 174.253H119.949ZM120.356 171.57C120.653 170.605 121.052 169.677 121.554 168.784L120.245 168.048C119.691 169.032 119.249 170.06 118.92 171.128L120.356 171.57ZM121.56 168.774C122.871 166.355 124.837 164.475 127.487 163.131L126.808 161.791C123.905 163.263 121.706 165.353 120.239 168.058L121.56 168.774ZM127.489 163.13C130.177 161.758 133.123 161.05 136.338 161.012L136.321 159.51C132.887 159.55 129.712 160.309 126.806 161.792L127.489 163.13ZM174.083 174.136L173.846 174.848L174.083 174.136ZM176.518 176.101L175.84 176.425L175.846 176.437L175.852 176.449L176.518 176.101ZM176.577 179.006L175.888 178.706L175.882 178.719L175.877 178.732L176.577 179.006ZM175.814 180.208L175.268 179.693L175.267 179.694L175.814 180.208ZM174.67 181L174.37 180.312L174.359 180.317L174.67 181ZM171.208 180.443L170.677 180.974L170.696 180.993L170.717 181.01L171.208 180.443ZM170.475 179.504L169.819 179.869L169.826 179.883L169.834 179.896L170.475 179.504ZM170.035 178.419L170.761 178.228L170.577 177.527L169.87 177.686L170.035 178.419ZM166.603 182.262L167.307 182.524L167.308 182.519L166.603 182.262ZM165.781 185.635L166.525 185.741L166.525 185.74L165.781 185.635ZM165.517 189.449L166.268 189.45V189.449H165.517ZM165.488 202.473L164.737 202.471L164.737 202.602L164.781 202.726L165.488 202.473ZM166.075 204.116V204.867H167.14L166.782 203.863L166.075 204.116ZM160.061 204.116L159.35 203.875L159.013 204.867H160.061V204.116ZM160.619 202.473L161.33 202.714L161.37 202.597V202.473H160.619ZM160.619 177.451H161.37V177.158L161.171 176.942L160.619 177.451ZM159.592 176.336L159.365 175.62L158.24 175.977L159.039 176.845L159.592 176.336ZM165.517 174.459H166.268V173.433L165.291 173.743L165.517 174.459ZM165.517 179.006H164.766L166.176 179.367L165.517 179.006ZM168.392 175.221L167.899 174.655L167.894 174.66L168.392 175.221ZM172.088 174.594C172.767 174.594 173.349 174.683 173.846 174.848L174.321 173.424C173.644 173.198 172.896 173.092 172.088 173.092V174.594ZM173.846 174.848C174.361 175.02 174.777 175.245 175.107 175.512L176.052 174.344C175.56 173.946 174.978 173.643 174.321 173.424L173.846 174.848ZM175.107 175.512C175.436 175.778 175.676 176.082 175.84 176.425L177.195 175.777C176.929 175.221 176.544 174.743 176.052 174.344L175.107 175.512ZM175.852 176.449C176.031 176.791 176.119 177.151 176.119 177.539H177.621C177.621 176.91 177.474 176.311 177.184 175.754L175.852 176.449ZM176.119 177.539C176.119 177.972 176.039 178.358 175.888 178.706L177.265 179.305C177.505 178.754 177.621 178.162 177.621 177.539H176.119ZM175.877 178.732C175.736 179.092 175.534 179.411 175.268 179.693L176.36 180.724C176.758 180.302 177.065 179.819 177.276 179.279L175.877 178.732ZM175.267 179.694C175.029 179.946 174.734 180.154 174.37 180.312L174.969 181.689C175.505 181.456 175.973 181.135 176.361 180.723L175.267 179.694ZM174.359 180.317C174.03 180.466 173.677 180.543 173.291 180.543V182.045C173.883 182.045 174.449 181.925 174.981 181.684L174.359 180.317ZM173.291 180.543C173.003 180.543 172.736 180.486 172.481 180.373L171.871 181.745C172.321 181.945 172.797 182.045 173.291 182.045V180.543ZM172.481 180.373C172.198 180.247 171.938 180.081 171.7 179.875L170.717 181.01C171.065 181.313 171.451 181.558 171.871 181.745L172.481 180.373ZM171.739 179.912C171.51 179.683 171.302 179.417 171.116 179.113L169.834 179.896C170.078 180.295 170.359 180.656 170.677 180.974L171.739 179.912ZM171.131 179.14C170.965 178.84 170.842 178.536 170.761 178.228L169.309 178.61C169.423 179.045 169.594 179.465 169.819 179.869L171.131 179.14ZM169.87 177.686C168.908 177.903 168.094 178.433 167.433 179.23L168.589 180.189C169.062 179.617 169.597 179.287 170.2 179.151L169.87 177.686ZM167.433 179.23C166.8 179.994 166.292 180.923 165.897 182.004L167.308 182.519C167.657 181.566 168.087 180.795 168.589 180.189L167.433 179.23ZM165.899 182C165.505 183.056 165.22 184.235 165.038 185.531L166.525 185.74C166.695 184.532 166.957 183.462 167.307 182.524L165.899 182ZM165.038 185.529C164.857 186.798 164.766 188.105 164.766 189.449H166.268C166.268 188.172 166.354 186.936 166.525 185.741L165.038 185.529ZM164.766 189.447L164.737 202.471L166.239 202.475L166.268 189.45L164.766 189.447ZM164.781 202.726L165.368 204.368L166.782 203.863L166.195 202.221L164.781 202.726ZM166.075 203.365H160.061V204.867H166.075V203.365ZM160.772 204.357L161.33 202.714L159.907 202.232L159.35 203.875L160.772 204.357ZM161.37 202.473V177.451H159.868V202.473H161.37ZM161.171 176.942L160.144 175.827L159.039 176.845L160.066 177.96L161.171 176.942ZM159.819 177.052L165.744 175.175L165.291 173.743L159.365 175.62L159.819 177.052ZM164.766 174.459V179.006H166.268V174.459H164.766ZM166.176 179.367C167.027 177.816 167.935 176.63 168.89 175.783L167.894 174.66C166.776 175.651 165.768 176.988 164.859 178.644L166.176 179.367ZM168.885 175.788C169.804 174.988 170.86 174.594 172.088 174.594V173.092C170.5 173.092 169.093 173.616 167.899 174.655L168.885 175.788ZM199.868 204.116V204.867H200.947L200.572 203.855L199.868 204.116ZM194.383 204.116H193.632V204.867H194.383V204.116ZM194.383 200.801H195.134V198.767L193.812 200.313L194.383 200.801ZM190.804 203.529L191.103 204.218L191.112 204.214L190.804 203.529ZM182.737 203.705L182.445 204.397L182.45 204.399L182.737 203.705ZM179.803 201.798L179.272 202.329L179.279 202.336L179.285 202.342L179.803 201.798ZM177.838 198.953L177.148 199.249L177.151 199.256L177.154 199.264L177.838 198.953ZM178.601 190.534L177.978 190.114L177.976 190.117L178.601 190.534ZM182.649 187.219L182.398 186.511L182.378 186.518L182.359 186.526L182.649 187.219ZM183.558 186.897L183.321 186.184L183.314 186.186L183.307 186.189L183.558 186.897ZM186.844 185.782L187.088 186.492L187.099 186.488L186.844 185.782ZM190.041 184.462L190.361 185.141L190.366 185.139L190.041 184.462ZM194.324 181.147L194.996 181.483L195.096 181.282L195.07 181.059L194.324 181.147ZM193.239 179.152L192.758 179.729L192.765 179.735L192.773 179.742L193.239 179.152ZM191.801 178.448L191.571 179.163L191.581 179.166L191.592 179.169L191.801 178.448ZM186.668 178.536L186.399 177.835L186.392 177.837L186.668 178.536ZM185.201 179.504L184.629 179.018L184.329 179.371L184.51 179.798L185.201 179.504ZM185.318 182.438L184.647 182.102L184.643 182.109L184.64 182.116L185.318 182.438ZM184.585 183.435L185.079 184L185.089 183.992L185.098 183.983L184.585 183.435ZM183.47 184.08L183.213 183.375L183.203 183.379L183.47 184.08ZM180.742 184.08L180.485 184.786L180.742 184.08ZM179.598 183.435L179.084 183.983L179.102 183.999L179.121 184.015L179.598 183.435ZM178.835 182.438L178.15 182.746L178.16 182.767L178.171 182.787L178.835 182.438ZM179.305 178.067L179.968 178.42L179.971 178.414L179.305 178.067ZM181.417 175.691L180.991 175.072L180.985 175.076L181.417 175.691ZM196.729 175.867L196.239 176.436L196.243 176.439L196.729 175.867ZM199.281 202.532H198.531V202.666L198.577 202.793L199.281 202.532ZM194.383 187.513H195.134V186.432L194.121 186.809L194.383 187.513ZM191.889 188.481L192.162 189.18L192.171 189.177L191.889 188.481ZM189.396 189.449L189.125 188.748L189.117 188.751L189.108 188.755L189.396 189.449ZM184.614 191.355L184.347 190.654L184.33 190.66L184.314 190.667L184.614 191.355ZM182.737 192.969L182.109 192.556L182.107 192.56L182.737 192.969ZM183.235 198.572L182.679 199.076L182.691 199.089L182.704 199.103L183.235 198.572ZM189.748 199.305L190.019 200.005L190.027 200.002L189.748 199.305ZM192.241 197.486L192.818 197.967L192.824 197.96L192.241 197.486ZM199.868 203.365H194.383V204.867H199.868V203.365ZM195.134 204.116V200.801H193.632V204.116H195.134ZM193.812 200.313C192.842 201.448 191.737 202.287 190.496 202.844L191.112 204.214C192.57 203.559 193.851 202.579 194.953 201.289L193.812 200.313ZM190.504 202.841C189.253 203.385 187.918 203.658 186.492 203.658V205.16C188.116 205.16 189.656 204.847 191.103 204.218L190.504 202.841ZM186.492 203.658H186.374V205.16H186.492V203.658ZM186.374 203.658C185.177 203.658 184.063 203.441 183.024 203.011L182.45 204.399C183.68 204.908 184.99 205.16 186.374 205.16V203.658ZM183.028 203.013C181.994 202.578 181.094 201.991 180.322 201.255L179.285 202.342C180.195 203.209 181.25 203.894 182.445 204.397L183.028 203.013ZM180.334 201.267C179.578 200.511 178.974 199.637 178.522 198.642L177.154 199.264C177.68 200.42 178.386 201.443 179.272 202.329L180.334 201.267ZM178.528 198.657C178.1 197.659 177.885 196.596 177.885 195.462H176.383C176.383 196.792 176.637 198.057 177.148 199.249L178.528 198.657ZM177.885 195.462C177.885 194.634 178.002 193.838 178.234 193.069L176.796 192.634C176.52 193.547 176.383 194.491 176.383 195.462H177.885ZM178.234 193.069C178.468 192.296 178.799 191.591 179.225 190.951L177.976 190.117C177.464 190.885 177.071 191.725 176.796 192.634L178.234 193.069ZM179.223 190.954C179.671 190.291 180.209 189.699 180.84 189.176L179.882 188.02C179.143 188.632 178.508 189.33 177.978 190.114L179.223 190.954ZM180.84 189.176C181.466 188.658 182.164 188.236 182.939 187.912L182.359 186.526C181.451 186.906 180.625 187.404 179.882 188.02L180.84 189.176ZM182.9 187.927L183.809 187.604L183.307 186.189L182.398 186.511L182.9 187.927ZM183.796 187.609C184.854 187.256 185.952 186.884 187.088 186.492L186.599 185.072C185.467 185.462 184.374 185.833 183.321 186.184L183.796 187.609ZM187.099 186.488C188.253 186.07 189.341 185.621 190.361 185.141L189.721 183.782C188.747 184.241 187.702 184.672 186.588 185.076L187.099 186.488ZM190.366 185.139C191.415 184.634 192.344 184.095 193.149 183.517L192.273 182.297C191.552 182.815 190.701 183.311 189.716 183.785L190.366 185.139ZM193.149 183.517C193.978 182.922 194.613 182.248 194.996 181.483L193.652 180.811C193.409 181.297 192.969 181.797 192.273 182.297L193.149 183.517ZM195.07 181.059C195.021 180.641 194.899 180.226 194.717 179.815L193.344 180.425C193.475 180.718 193.549 180.988 193.578 181.235L195.07 181.059ZM194.717 179.815C194.501 179.329 194.15 178.915 193.704 178.563L192.773 179.742C193.071 179.977 193.247 180.207 193.344 180.425L194.717 179.815ZM193.719 178.575C193.264 178.196 192.681 177.922 192.011 177.727L191.592 179.169C192.134 179.327 192.509 179.522 192.758 179.729L193.719 178.575ZM192.032 177.733C191.322 177.505 190.444 177.404 189.425 177.404V178.906C190.362 178.906 191.067 179.001 191.571 179.163L192.032 177.733ZM189.425 177.404C188.212 177.404 187.188 177.533 186.399 177.835L186.936 179.238C187.477 179.031 188.292 178.906 189.425 178.906V177.404ZM186.392 177.837C185.671 178.122 185.064 178.505 184.629 179.018L185.773 179.991C186.002 179.721 186.374 179.459 186.943 179.235L186.392 177.837ZM184.51 179.798C184.76 180.387 184.861 180.851 184.861 181.206H186.363C186.363 180.582 186.19 179.912 185.892 179.211L184.51 179.798ZM184.861 181.206C184.861 181.517 184.791 181.813 184.647 182.102L185.99 182.774C186.237 182.28 186.363 181.754 186.363 181.206H184.861ZM184.64 182.116C184.506 182.399 184.318 182.655 184.071 182.887L185.098 183.983C185.477 183.628 185.779 183.22 185.997 182.759L184.64 182.116ZM184.09 182.87C183.854 183.077 183.565 183.247 183.214 183.375L183.727 184.786C184.236 184.601 184.69 184.341 185.079 184L184.09 182.87ZM183.203 183.379C182.883 183.5 182.534 183.564 182.15 183.564V185.066C182.705 185.066 183.236 184.973 183.738 184.782L183.203 183.379ZM182.15 183.564C181.72 183.564 181.338 183.498 180.999 183.375L180.485 184.786C181.007 184.976 181.564 185.066 182.15 185.066V183.564ZM180.999 183.375C180.644 183.246 180.338 183.072 180.075 182.855L179.121 184.015C179.523 184.346 179.98 184.602 180.485 184.786L180.999 183.375ZM180.112 182.887C179.858 182.65 179.656 182.384 179.5 182.088L178.171 182.787C178.406 183.235 178.712 183.634 179.084 183.983L180.112 182.887ZM179.52 182.13C179.388 181.836 179.322 181.53 179.322 181.206H177.82C177.82 181.742 177.931 182.258 178.15 182.746L179.52 182.13ZM179.322 181.206C179.322 180.139 179.544 179.217 179.968 178.419L178.642 177.714C178.088 178.755 177.82 179.925 177.82 181.206H179.322ZM179.971 178.414C180.401 177.588 181.021 176.886 181.848 176.305L180.985 175.076C179.974 175.786 179.187 176.668 178.639 177.72L179.971 178.414ZM181.842 176.31C182.695 175.723 183.755 175.256 185.038 174.921L184.659 173.468C183.244 173.837 182.016 174.368 180.991 175.072L181.842 176.31ZM185.038 174.921C186.314 174.589 187.774 174.418 189.425 174.418V172.916C187.673 172.916 186.082 173.097 184.659 173.468L185.038 174.921ZM189.425 174.418C192.486 174.418 194.721 175.127 196.239 176.436L197.22 175.298C195.335 173.673 192.7 172.916 189.425 172.916V174.418ZM196.243 176.439C197.742 177.714 198.531 179.557 198.531 182.086H200.032C200.032 179.217 199.12 176.914 197.216 175.295L196.243 176.439ZM198.531 182.086V202.532H200.032V182.086H198.531ZM198.577 202.793L199.164 204.377L200.572 203.855L199.986 202.271L198.577 202.793ZM194.121 186.809C193.273 187.124 192.435 187.449 191.607 187.784L192.171 189.177C192.986 188.847 193.81 188.527 194.645 188.216L194.121 186.809ZM191.616 187.781C190.815 188.094 189.985 188.416 189.125 188.748L189.666 190.149C190.528 189.816 191.36 189.493 192.162 189.18L191.616 187.781ZM189.108 188.755C188.309 189.086 187.52 189.408 186.741 189.719L187.299 191.114C188.084 190.8 188.879 190.476 189.683 190.142L189.108 188.755ZM186.741 189.719C185.962 190.031 185.165 190.342 184.347 190.654L184.882 192.057C185.707 191.743 186.512 191.428 187.299 191.114L186.741 189.719ZM184.314 190.667C183.409 191.062 182.673 191.7 182.109 192.556L183.364 193.382C183.779 192.751 184.294 192.314 184.914 192.044L184.314 190.667ZM182.107 192.56C181.552 193.416 181.282 194.392 181.282 195.462H182.784C182.784 194.655 182.983 193.969 183.367 193.377L182.107 192.56ZM181.282 195.462C181.282 196.159 181.406 196.823 181.66 197.447L183.051 196.88C182.875 196.448 182.784 195.978 182.784 195.462H181.282ZM181.66 197.447C181.907 198.054 182.247 198.598 182.679 199.076L183.792 198.068C183.481 197.724 183.234 197.33 183.051 196.88L181.66 197.447ZM182.704 199.103C183.164 199.562 183.701 199.926 184.309 200.197L184.919 198.824C184.472 198.625 184.09 198.364 183.767 198.041L182.704 199.103ZM184.309 200.197C184.938 200.476 185.61 200.613 186.316 200.613V199.111C185.809 199.111 185.347 199.014 184.919 198.824L184.309 200.197ZM186.316 200.613H186.492V199.111H186.316V200.613ZM186.492 200.613C187.781 200.613 188.96 200.416 190.019 200.005L189.476 198.605C188.619 198.937 187.628 199.111 186.492 199.111V200.613ZM190.027 200.002C191.122 199.564 192.055 198.883 192.818 197.967L191.664 197.006C191.058 197.733 190.329 198.264 189.469 198.608L190.027 200.002ZM192.824 197.96C193.585 197.025 194.154 195.862 194.547 194.497L193.104 194.081C192.754 195.297 192.266 196.266 191.659 197.012L192.824 197.96ZM194.547 194.497C194.943 193.119 195.134 191.491 195.134 189.625H193.632C193.632 191.396 193.45 192.877 193.104 194.081L194.547 194.497ZM195.134 189.625V187.513H193.632V189.625H195.134ZM236.683 172.112L236.207 172.693L236.218 172.702L236.683 172.112ZM238.179 174.107L237.489 174.402L237.493 174.413L237.498 174.422L238.179 174.107ZM238.766 184.344L238.025 184.219L238.024 184.229L238.766 184.344ZM237.827 188.833L238.553 189.026L238.553 189.024L237.827 188.833ZM236.448 193.233L235.742 192.978L235.74 192.984L236.448 193.233ZM234.864 197.574L234.162 197.309L234.158 197.319L234.864 197.574ZM233.779 200.332L234.468 200.631L234.47 200.626L233.779 200.332ZM232.43 203.031L233.067 203.427L233.076 203.414L233.083 203.4L232.43 203.031ZM231.755 204.116V204.867H232.172L232.393 204.512L231.755 204.116ZM226.651 204.116L225.937 204.348L226.105 204.867H226.651V204.116ZM220.197 184.286L220.911 184.053L220.187 181.829L219.481 184.059L220.197 184.286ZM213.919 204.116V204.867H214.469L214.635 204.343L213.919 204.116ZM207.935 204.116L207.204 204.287L207.339 204.867H207.935V204.116ZM201.511 176.629L202.242 176.459L202.224 176.383L202.191 176.312L201.511 176.629ZM200.484 174.429V173.678H199.305L199.804 174.747L200.484 174.429ZM206.615 174.429L207.365 174.477L207.415 173.678H206.615V174.429ZM206.498 176.277L205.748 176.23L205.741 176.341L205.767 176.449L206.498 176.277ZM211.221 196.46L210.489 196.631L211.089 199.193L211.932 196.7L211.221 196.46ZM218.672 174.429V173.678H218.133L217.96 174.189L218.672 174.429ZM221.928 174.429L222.64 174.19L222.468 173.678H221.928V174.429ZM229.76 197.75L229.048 197.989L229.638 199.746L230.438 198.074L229.76 197.75ZM231.227 194.494L231.917 194.791L231.918 194.787L231.227 194.494ZM232.782 190.387L233.493 190.628L233.494 190.625L232.782 190.387ZM234.248 179.152L234.974 178.96L234.738 178.068L233.912 178.481L234.248 179.152ZM234.19 179.182V179.933H234.367L234.525 179.853L234.19 179.182ZM232.606 178.888L232.313 179.58L232.324 179.585L232.336 179.589L232.606 178.888ZM231.285 178.038L230.769 178.583L231.285 178.038ZM230.376 176.805L229.689 177.108L229.696 177.125L229.704 177.141L230.376 176.805ZM230.376 173.667L231.059 173.98L231.063 173.969L230.376 173.667ZM231.256 172.435L231.757 172.994L231.765 172.987L231.773 172.98L231.256 172.435ZM232.547 171.613L232.277 170.912L232.268 170.916L232.547 171.613ZM234.219 172.071C235.078 172.071 235.721 172.295 236.207 172.693L237.159 171.531C236.354 170.872 235.354 170.569 234.219 170.569V172.071ZM236.218 172.702C236.757 173.126 237.182 173.686 237.489 174.402L238.869 173.811C238.472 172.885 237.9 172.115 237.148 171.522L236.218 172.702ZM237.498 174.422C237.834 175.148 238.07 175.974 238.198 176.908L239.686 176.703C239.54 175.642 239.267 174.669 238.86 173.791L237.498 174.422ZM238.198 176.908C238.33 177.872 238.396 178.826 238.396 179.768H239.898C239.898 178.755 239.827 177.734 239.686 176.703L238.198 176.908ZM238.396 179.768C238.396 181.272 238.272 182.755 238.025 184.219L239.506 184.469C239.768 182.922 239.898 181.355 239.898 179.768H238.396ZM238.024 184.229C237.793 185.709 237.485 187.18 237.101 188.641L238.553 189.024C238.951 187.513 239.269 185.992 239.508 184.46L238.024 184.229ZM237.101 188.639C236.716 190.085 236.263 191.531 235.742 192.978L237.155 193.487C237.69 192.001 238.156 190.514 238.553 189.026L237.101 188.639ZM235.74 192.984C235.233 194.425 234.707 195.867 234.162 197.309L235.567 197.84C236.116 196.387 236.646 194.935 237.157 193.482L235.74 192.984ZM234.158 197.319C233.83 198.225 233.474 199.131 233.088 200.038L234.47 200.626C234.866 199.694 235.233 198.762 235.57 197.83L234.158 197.319ZM233.09 200.032C232.71 200.907 232.272 201.783 231.776 202.661L233.083 203.4C233.604 202.479 234.066 201.556 234.468 200.631L233.09 200.032ZM231.792 202.634L231.117 203.719L232.393 204.512L233.067 203.427L231.792 202.634ZM231.755 203.365H226.651V204.867H231.755V203.365ZM227.365 203.884L220.911 184.053L219.483 184.518L225.937 204.348L227.365 203.884ZM219.481 184.059L213.203 203.889L214.635 204.343L220.913 184.512L219.481 184.059ZM213.919 203.365H207.935V204.867H213.919V203.365ZM208.666 203.945L202.242 176.459L200.78 176.8L207.204 204.287L208.666 203.945ZM202.191 176.312L201.165 174.112L199.804 174.747L200.83 176.947L202.191 176.312ZM200.484 175.18H206.615V173.678H200.484V175.18ZM205.866 174.382L205.748 176.23L207.247 176.325L207.365 174.477L205.866 174.382ZM205.767 176.449L210.489 196.631L211.952 196.288L207.229 176.106L205.767 176.449ZM211.932 196.7L219.383 174.67L217.96 174.189L210.509 196.219L211.932 196.7ZM218.672 175.18H221.928V173.678H218.672V175.18ZM221.216 174.668L229.048 197.989L230.472 197.511L222.64 174.19L221.216 174.668ZM230.438 198.074C230.873 197.163 231.366 196.068 231.916 194.791L230.537 194.197C229.992 195.462 229.507 196.538 229.083 197.426L230.438 198.074ZM231.918 194.787C232.474 193.478 232.999 192.091 233.493 190.628L232.07 190.147C231.587 191.578 231.075 192.929 230.535 194.201L231.918 194.787ZM233.494 190.625C233.991 189.132 234.409 187.61 234.747 186.059L233.28 185.739C232.953 187.239 232.549 188.709 232.069 190.15L233.494 190.625ZM234.747 186.059C235.09 184.488 235.263 182.987 235.263 181.558H233.761C233.761 182.866 233.602 184.259 233.28 185.739L234.747 186.059ZM235.263 181.558C235.263 180.576 235.172 179.706 234.974 178.96L233.522 179.344C233.677 179.929 233.761 180.662 233.761 181.558H235.263ZM233.912 178.481L233.854 178.51L234.525 179.853L234.584 179.824L233.912 178.481ZM234.19 178.431C233.734 178.431 233.297 178.35 232.875 178.187L232.336 179.589C232.931 179.818 233.55 179.933 234.19 179.933V178.431ZM232.898 178.197C232.466 178.014 232.103 177.778 231.802 177.492L230.769 178.583C231.211 179.001 231.728 179.332 232.313 179.58L232.898 178.197ZM231.802 177.492C231.496 177.202 231.244 176.863 231.048 176.47L229.704 177.141C229.977 177.687 230.332 178.169 230.769 178.583L231.802 177.492ZM231.063 176.503C230.891 176.112 230.804 175.697 230.804 175.251H229.302C229.302 175.9 229.431 176.521 229.689 177.108L231.063 176.503ZM230.804 175.251C230.804 174.757 230.894 174.338 231.059 173.98L229.693 173.354C229.428 173.934 229.302 174.571 229.302 175.251H230.804ZM231.063 173.969C231.239 173.571 231.471 173.25 231.757 172.994L230.755 171.875C230.298 172.284 229.944 172.784 229.689 173.364L231.063 173.969ZM231.773 172.98C232.073 172.695 232.422 172.472 232.826 172.31L232.268 170.916C231.694 171.146 231.182 171.47 230.74 171.889L231.773 172.98ZM232.816 172.314C233.235 172.153 233.681 172.071 234.16 172.071V170.569C233.505 170.569 232.875 170.682 232.277 170.912L232.816 172.314ZM234.16 172.071H234.219V170.569H234.16V172.071Z" fill="#F5EDE2" mask="url(#path-3-outside-2_11_32)"/>
</svg>
