<svg width="385" height="702" viewBox="0 0 385 702" fill="none" xmlns="http://www.w3.org/2000/svg">
<path fill-rule="evenodd" clip-rule="evenodd" d="M169.294 702L338.589 702L336.612 697.333C331.423 685.081 331.424 675.304 336.615 664.897C342.08 653.941 368.208 628.144 381.214 620.862L385 618.741L385 600.018C385 589.719 384.548 581.294 383.994 581.294C383.031 581.294 365.487 592.289 364.222 593.685C363.886 594.056 362.707 594.92 361.602 595.604C360.496 596.289 355.076 600.078 349.559 604.024C329.735 618.201 315.991 624.847 306.495 624.847C297.808 624.847 290.822 616.84 288.539 604.263C281.527 565.645 304.355 532.943 353.357 511.411C359.668 508.637 369.37 505.172 374.917 503.709L385 501.051L385 470.241C385 445.53 384.68 439.433 383.384 439.433C377.711 439.433 356.058 448.53 342.222 456.727C288.54 488.531 230.182 554.742 184.057 636.174C176.576 649.382 169.923 656.107 161.421 659.057C153.922 661.659 148.807 661.407 144.85 658.237C140.019 654.368 138.111 648.648 138.111 638.034C138.111 616.522 147.285 590.515 167.561 554.539C173.552 543.911 192.313 514.21 196.031 509.467C196.987 508.249 203.951 498.853 211.507 488.586C249.495 436.97 300.889 381.943 347.781 342.681C350.438 340.457 359.899 333.242 368.806 326.651L385 314.663L385 290.451L385 266.24L373.694 272.404C362.561 278.473 341.449 291.627 334.278 296.961C315.258 311.111 306.069 318.067 305.556 318.706C305.219 319.126 299.994 323.347 293.944 328.087C287.894 332.828 278.771 340.36 273.669 344.826C268.566 349.294 259.276 357.427 253.022 362.902C224.024 388.291 191.123 421.233 183.386 432.628C172.009 449.384 164.422 466.483 152.106 503.121C144.82 524.793 140.752 534.396 133.7 546.575C114.316 580.048 99.9692 577.935 93.566 540.663C91.1692 526.708 91.1741 518.276 93.5904 505.211C102.524 456.91 123.788 410.452 151.157 379.44C165.577 363.102 175.914 354.997 202.278 339.362C207.656 336.172 212.881 333.049 213.889 332.422C220.977 328.015 233.168 320.971 246.278 313.71C255.84 308.414 294.568 284.187 295.778 282.745C296.114 282.344 301.819 277.853 308.457 272.763C321.147 263.033 339.189 245.632 345.31 237.219C347.301 234.481 349.274 231.961 349.696 231.619C350.117 231.277 353.337 226.517 356.852 221.041C365.431 207.679 375.2 186.696 380.584 170.075L385 156.44L385 78.3006L385 0.161334L296.639 0.161338L208.28 0.161342L203.924 6.07222C195.809 17.0839 181.037 41.1082 176.782 50.2122C168.455 68.0344 162.767 94.5922 158.85 133.934C155.216 170.436 142.383 201.753 131.059 201.753C122.831 201.753 114.424 189.007 107.46 165.974C104.252 155.36 103.889 152.429 103.889 137.108C103.889 88.8058 115.331 39.9061 133.934 8.70911C136.231 4.85522 138.111 1.35599 138.111 0.931648C138.111 0.508554 107.036 0.161346 69.0555 0.161348L-3.06783e-05 0.161351L0.0451963 108.735L0.089201 217.308L7.72442 202.375C29.6755 159.441 51.3052 132.067 63.2769 132.067C67.0156 132.067 70.6774 136.622 71.5085 142.307C72.5389 149.352 69.6703 166.71 63.4309 191.176C52.5152 233.983 51.4519 241.764 53.8193 261.517C57.4921 292.161 70.5735 307.548 92.8889 307.471C114.228 307.397 132.166 299.601 148.388 283.351C153.902 277.827 160.071 271.066 162.096 268.328C171.898 255.078 185.165 224.333 190.557 202.375C191.901 196.9 194.398 183.04 196.106 171.575C211.979 64.993 233.805 15.4935 268.407 7.59786C288.539 3.0048 322.327 21.494 335.544 44.3373C337.92 48.4438 341.313 56.2835 343.083 61.7589C345.9 70.4783 346.306 73.7996 346.348 88.5134C346.402 107.055 345.101 113.726 338.162 130.466C335.953 135.795 333.351 142.095 332.378 144.465C329.298 151.974 315.557 179.598 309.852 189.75C293.729 218.438 267.599 250.171 245.423 267.996C235.63 275.867 212.599 291.712 194.295 303.171C178.528 313.043 163.431 323.77 155.034 331.067C142.349 342.092 117.306 368.363 108.671 379.704C93.3399 399.841 76.769 428.997 64.1153 458.099C60.9901 465.285 57.4432 473.405 56.2344 476.142C55.0244 478.88 50.6195 490.08 46.4469 501.03C31.009 541.54 21.6724 564.723 17.3776 573.205C11.0868 585.632 2.24033 601.185 1.03033 601.947C0.463218 602.304 -3.36749e-06 624.961 -2.17256e-06 652.298L0 702L169.294 702Z" fill="url(#paint0_radial_7_4)"/>
<defs>
<radialGradient id="paint0_radial_7_4" cx="0" cy="0" r="1" gradientUnits="userSpaceOnUse" gradientTransform="translate(192.5 351.081) scale(192.5 375.529)">
<stop stop-color="#3B3561" stop-opacity="0"/>
<stop offset="0.495" stop-color="#514B74"/>
<stop offset="1" stop-color="#3B3561" stop-opacity="0"/>
</radialGradient>
</defs>
</svg>
