<svg width="40" height="40" viewBox="0 0 40 40" fill="none" xmlns="http://www.w3.org/2000/svg">
<path fill-rule="evenodd" clip-rule="evenodd" d="M34.7234 4C34.1082 4 33.5077 4.17212 32.9973 4.4962L24.6857 9.74509C22.6 11.0633 20.6928 12.6188 19.0066 14.3768C22.4701 15.9199 25.2565 18.5606 26.8846 21.8431C28.7397 20.2446 30.381 18.4365 31.7718 16.4593L37.3118 8.58367C37.6237 8.13958 37.8027 7.62362 37.8297 7.09074C37.8567 6.55786 37.7307 6.02802 37.4651 5.55765C37.1995 5.08729 36.8042 4.69401 36.3214 4.4197C35.8386 4.1454 35.2863 4.00035 34.7234 4ZM21.1434 25.7476C22.216 25.1831 23.2519 24.5581 24.2455 23.876C23.5852 22.293 22.5892 20.8552 21.3191 19.6515C20.049 18.4478 18.5319 17.5039 16.8616 16.878C16.1419 17.8192 15.4825 18.8004 14.8868 19.8165L14.4319 20.5918C15.8327 20.9737 17.1082 21.6866 18.1387 22.6635C19.1692 23.6405 19.9211 24.8495 20.3237 26.1772L21.145 25.7461L21.1434 25.7476ZM12.0644 22.6076C10.4372 22.6076 8.87658 23.2202 7.72594 24.3107C6.5753 25.4012 5.92888 26.8803 5.92888 28.4225C5.92897 28.7412 5.85995 29.0565 5.72612 29.3488C5.59228 29.6412 5.39648 29.9044 5.15085 30.122C4.90523 30.3397 4.61503 30.5072 4.29826 30.6142C3.9815 30.7211 3.64492 30.7652 3.30941 30.7438C3.08757 30.7296 2.86585 30.7729 2.66794 30.8689C2.47002 30.9649 2.30335 31.1101 2.18574 31.2889C2.06813 31.4678 2.00399 31.6735 2.00018 31.8842C1.99637 32.0949 2.05303 32.3026 2.16411 32.4851C3.10798 34.0391 4.56681 35.2543 6.31409 35.942C8.06136 36.6297 9.99933 36.7515 11.8271 36.2884C13.6549 35.8253 15.2702 34.8032 16.4222 33.3809C17.5743 31.9586 18.1986 30.2155 18.1983 28.4225C18.1983 27.6588 18.0396 26.9027 17.7313 26.1972C17.423 25.4917 16.971 24.8507 16.4013 24.3107C15.8315 23.7708 15.1552 23.3425 14.4108 23.0502C13.6664 22.758 12.8702 22.6076 12.0644 22.6076Z" fill="black"/>
</svg>
